<?xml version="1.0" standalone="no"?>
<!DOCTYPE svg PUBLIC "-//W3C//DTD SVG 20010904//EN"
 "http://www.w3.org/TR/2001/REC-SVG-20010904/DTD/svg10.dtd">
<svg version="1.0" xmlns="http://www.w3.org/2000/svg"
 width="1123.000000pt" height="1123.000000pt" viewBox="0 0 1123.000000 1123.000000"
 preserveAspectRatio="xMidYMid meet">
<metadata>
Created by potrace 1.14, written by Peter Selinger 2001-2017
</metadata>
<g transform="translate(0.000000,1123.000000) scale(0.100000,-0.100000)"
fill="#000000" stroke="none">
<path d="M5340 11205 c-7 -8 -16 -12 -21 -9 -5 3 -9 0 -9 -7 0 -8 -4 -8 -15 1
-12 10 -15 10 -15 -1 0 -12 -2 -12 -9 0 -5 8 -11 9 -15 3 -5 -9 -64 -7 -74 3
-3 3 -11 0 -18 -6 -8 -7 -14 -7 -19 1 -4 7 -12 7 -26 0 -10 -6 -19 -7 -19 -3
0 4 -5 2 -12 -5 -9 -9 -16 -8 -30 5 -18 16 -18 16 -12 0 3 -10 1 -17 -5 -17
-6 0 -11 5 -11 12 0 6 -6 4 -13 -7 -13 -17 -15 -17 -32 6 -12 17 -16 19 -11 5
5 -13 2 -17 -9 -13 -8 4 -17 1 -21 -5 -4 -7 -9 -6 -15 3 -6 10 -9 11 -9 2 0
-7 -5 -13 -11 -13 -5 0 -7 6 -3 13 6 10 4 10 -7 0 -7 -7 -28 -13 -47 -13 -24
0 -31 -3 -26 -12 5 -8 0 -7 -11 2 -10 8 -16 10 -12 3 9 -15 -18 -21 -65 -12
-21 3 -35 3 -33 -1 3 -4 -4 -10 -15 -13 -11 -3 -20 -1 -20 4 0 5 -5 9 -11 9
-5 0 -8 -4 -5 -9 3 -5 -3 -11 -14 -14 -11 -3 -18 -1 -15 3 3 5 1 11 -5 15 -5
3 -10 -2 -10 -12 0 -15 -2 -16 -10 -3 -5 8 -10 11 -10 5 0 -5 -21 -10 -48 -10
-32 0 -46 -4 -44 -13 2 -10 -3 -10 -17 -3 -15 8 -20 7 -25 -6 -5 -11 -10 -13
-17 -6 -14 14 -51 4 -42 -11 4 -7 2 -7 -7 1 -10 9 -16 8 -27 -3 -11 -11 -19
-11 -35 -3 -16 9 -19 8 -13 -2 6 -9 2 -11 -13 -7 -13 4 -20 2 -16 -3 3 -6 -5
-8 -20 -5 -14 3 -28 0 -32 -5 -3 -6 -13 -8 -21 -5 -9 4 -22 -2 -30 -11 -8 -10
-11 -12 -8 -5 6 10 3 11 -11 3 -11 -5 -27 -12 -37 -15 -10 -3 -15 -10 -12 -16
4 -7 -2 -7 -19 0 -18 6 -26 6 -26 -1 0 -6 -4 -7 -10 -4 -5 3 -10 0 -10 -7 0
-8 -3 -9 -8 -3 -8 12 -36 19 -29 8 3 -5 -1 -14 -9 -21 -8 -7 -14 -8 -14 -2 0
5 -5 10 -11 10 -5 0 -7 -5 -3 -11 4 -8 0 -8 -15 0 -18 10 -20 9 -14 -5 4 -12
3 -15 -6 -10 -6 4 -19 2 -27 -5 -13 -10 -17 -10 -25 2 -7 12 -9 12 -10 -1 -1
-8 -1 -18 -1 -21 1 -3 -11 -4 -25 -1 -19 4 -24 2 -18 -8 6 -9 3 -10 -14 -1
-12 7 -21 8 -21 2 0 -8 -29 -23 -50 -26 -3 0 -12 -5 -20 -10 -8 -5 -30 -10
-48 -11 -18 -1 -40 -10 -48 -20 -9 -11 -13 -13 -9 -7 9 19 -44 -3 -62 -25 -9
-11 -12 -11 -7 -2 7 13 5 13 -9 1 -9 -7 -17 -10 -17 -6 0 4 -6 2 -13 -4 -8 -6
-17 -8 -20 -4 -4 3 -7 -1 -7 -10 0 -10 -4 -17 -10 -17 -5 0 -10 6 -10 13 0 7
-3 8 -8 2 -4 -5 -16 -17 -26 -25 -18 -13 -19 -13 -11 0 5 9 0 8 -13 -4 -12
-11 -22 -15 -22 -11 0 4 -9 0 -19 -9 -11 -10 -25 -15 -30 -11 -6 3 -14 -1 -17
-9 -3 -9 -10 -16 -16 -16 -5 0 -6 6 -3 13 4 6 1 5 -7 -4 -7 -9 -19 -14 -27
-11 -8 3 -11 0 -7 -6 3 -6 2 -13 -4 -17 -5 -3 -10 0 -10 7 0 10 -2 10 -9 -1
-5 -8 -16 -11 -26 -8 -9 4 -14 3 -10 -3 3 -6 1 -10 -5 -10 -6 0 -9 -4 -5 -9 3
-6 -4 -8 -15 -6 -12 2 -23 -2 -27 -11 -4 -11 -9 -12 -18 -4 -10 8 -17 6 -27
-7 -7 -10 -19 -18 -25 -19 -30 -2 -34 -5 -28 -14 3 -5 -3 -10 -15 -10 -11 0
-23 -6 -26 -14 -3 -8 -16 -13 -29 -11 -14 1 -22 -2 -19 -6 10 -17 -6 -29 -25
-19 -15 7 -18 6 -17 -8 1 -11 -5 -16 -16 -14 -9 1 -20 -3 -24 -9 -5 -8 -3 -9
7 -4 12 8 12 6 0 -8 -15 -18 -26 -23 -16 -7 3 6 1 10 -5 10 -6 0 -13 -7 -16
-15 -4 -8 -17 -15 -31 -15 -13 0 -22 -4 -19 -8 2 -4 -4 -14 -16 -21 -11 -7
-17 -8 -13 -2 3 6 1 11 -4 11 -10 0 -15 -13 -12 -32 0 -4 -10 -5 -23 -2 -17 3
-30 -3 -44 -21 -11 -13 -22 -22 -25 -18 -10 10 -37 -18 -30 -31 4 -6 -1 -5
-10 3 -15 12 -17 11 -17 -3 0 -11 -5 -14 -12 -10 -8 5 -9 2 -4 -11 5 -14 4
-15 -7 -7 -10 9 -16 7 -27 -7 -7 -11 -19 -17 -27 -14 -8 3 -13 2 -11 -3 2 -5
0 -9 -3 -9 -4 0 -16 -8 -26 -18 -11 -9 -24 -14 -28 -10 -5 5 -3 0 4 -10 12
-15 12 -17 -3 -11 -9 4 -18 0 -22 -9 -3 -9 -12 -13 -19 -11 -8 3 -16 -4 -20
-17 -6 -17 -9 -19 -16 -8 -7 11 -9 10 -9 -4 0 -10 -5 -15 -10 -12 -6 3 -13 0
-16 -9 -3 -8 -14 -13 -24 -11 -13 3 -17 -1 -13 -11 5 -13 -8 -19 -30 -15 -5 1
-6 -3 -2 -9 3 -5 -1 -13 -10 -16 -9 -4 -14 -13 -10 -22 4 -12 3 -13 -10 -2
-11 9 -15 9 -15 1 0 -7 -13 -17 -30 -22 -27 -10 -35 -20 -31 -41 0 -4 -5 -5
-13 -2 -8 3 -20 -3 -27 -13 -8 -11 -22 -22 -32 -26 -10 -4 -15 -11 -12 -17 3
-6 -1 -7 -9 -4 -11 4 -16 0 -16 -11 0 -14 -3 -15 -14 -6 -11 9 -14 8 -12 -6 0
-10 -5 -17 -11 -16 -7 2 -13 -1 -13 -6 0 -5 6 -12 13 -15 8 -4 7 -5 -3 -4 -22
2 -51 -13 -44 -23 3 -5 0 -9 -7 -9 -6 0 -22 -10 -34 -22 -13 -13 -35 -31 -49
-41 -18 -12 -25 -25 -21 -34 4 -13 3 -14 -10 -3 -12 10 -15 10 -15 -5 0 -12
-5 -15 -16 -11 -15 6 -15 4 -3 -11 9 -10 9 -14 2 -10 -7 5 -17 0 -24 -12 -7
-11 -19 -17 -27 -13 -11 4 -13 1 -7 -8 6 -10 4 -12 -8 -7 -11 4 -14 2 -10 -9
3 -8 -1 -14 -10 -14 -9 0 -19 -4 -22 -10 -3 -6 1 -7 12 -4 17 5 17 5 0 -6 -9
-6 -22 -8 -27 -5 -6 4 -7 -1 -3 -11 4 -12 3 -15 -5 -10 -7 4 -12 2 -12 -4 0
-6 -4 -8 -10 -5 -5 3 -7 0 -4 -8 3 -8 0 -18 -7 -23 -8 -5 -10 -3 -4 7 5 8 -1
5 -14 -5 -12 -11 -20 -25 -17 -32 3 -8 -2 -11 -14 -9 -11 2 -19 1 -17 -3 3
-11 -36 -51 -45 -46 -4 3 -5 -3 -1 -12 5 -13 3 -16 -10 -11 -9 3 -16 3 -16 -1
3 -20 -2 -32 -13 -29 -7 1 -12 -4 -11 -10 2 -7 -2 -13 -7 -13 -5 0 -9 -6 -7
-12 1 -7 -4 -12 -10 -11 -7 2 -13 -2 -13 -8 0 -5 -4 -7 -10 -4 -6 3 -7 -1 -4
-10 4 -9 3 -15 -2 -14 -21 4 -28 -2 -14 -11 13 -8 12 -10 -2 -10 -10 0 -18 -5
-18 -11 0 -5 -5 -7 -10 -4 -6 4 -9 1 -8 -7 2 -7 -3 -12 -11 -10 -12 3 -12 1 0
-14 10 -13 10 -16 1 -10 -13 8 -52 -27 -52 -47 0 -5 -7 -7 -14 -4 -10 4 -13 1
-9 -9 3 -7 0 -14 -7 -14 -8 0 -10 -8 -7 -21 4 -17 3 -19 -6 -10 -17 17 -31 13
-17 -4 10 -13 9 -15 -11 -15 -19 0 -21 -2 -9 -10 14 -9 7 -15 -14 -11 -5 1 -6
-5 -3 -13 4 -11 1 -13 -10 -9 -11 4 -14 2 -9 -5 4 -7 2 -12 -4 -12 -6 0 -9 -3
-7 -7 6 -10 -19 -34 -27 -26 -3 3 -3 -4 -1 -17 3 -14 0 -20 -8 -17 -13 5 -30
-11 -35 -33 -2 -8 -11 -22 -21 -30 -10 -9 -15 -22 -13 -29 3 -8 0 -11 -6 -7
-10 6 -27 -21 -23 -38 1 -5 -5 -6 -13 -3 -9 4 -15 3 -15 -1 4 -25 -2 -42 -13
-36 -8 5 -9 2 -5 -10 4 -11 3 -15 -4 -11 -6 4 -13 -2 -16 -14 -3 -12 -9 -21
-14 -21 -5 0 -9 -7 -9 -16 0 -9 -6 -14 -13 -11 -8 3 -14 -1 -14 -9 0 -7 4 -11
9 -8 4 3 8 3 8 0 0 -3 -12 -13 -27 -21 -17 -10 -20 -14 -8 -11 20 6 20 6 -1
-11 -11 -10 -22 -22 -25 -28 -2 -5 -8 -9 -12 -7 -5 1 -6 -2 -3 -7 3 -5 -1 -14
-9 -21 -8 -7 -12 -16 -9 -21 3 -5 0 -9 -5 -9 -6 0 -11 -7 -11 -15 0 -8 -5 -15
-11 -15 -5 0 -7 -4 -4 -10 3 -5 1 -10 -5 -10 -6 0 -8 -5 -4 -12 5 -8 2 -9 -11
-4 -14 5 -16 4 -6 -8 9 -11 8 -15 -4 -19 -8 -4 -12 -13 -9 -22 4 -10 2 -15 -7
-13 -9 2 -14 -6 -13 -24 0 -22 -3 -25 -17 -17 -15 8 -17 5 -13 -17 3 -15 1
-23 -5 -20 -5 4 -11 -4 -13 -16 -2 -13 -9 -22 -15 -21 -7 2 -10 -4 -7 -12 4
-8 1 -15 -5 -15 -6 0 -8 -7 -4 -17 4 -10 2 -14 -5 -9 -13 8 -26 -29 -16 -46 5
-8 0 -7 -11 2 -17 14 -18 13 -13 -7 4 -16 2 -23 -9 -23 -8 0 -11 -5 -8 -10 8
-13 -30 -62 -40 -52 -4 4 -3 -3 3 -14 10 -18 8 -24 -13 -40 -24 -18 -36 -42
-14 -29 6 4 5 -2 -2 -13 -7 -12 -18 -18 -24 -14 -5 3 -4 -2 4 -12 8 -9 10 -16
5 -15 -21 4 -28 -2 -14 -11 13 -8 13 -10 -2 -10 -11 0 -15 -5 -12 -14 3 -7 -2
-21 -11 -30 -9 -9 -13 -16 -9 -16 3 0 1 -7 -6 -15 -7 -8 -17 -12 -24 -8 -8 4
-8 2 1 -7 9 -9 7 -20 -8 -46 -10 -19 -18 -38 -18 -42 3 -19 -2 -25 -11 -12 -8
11 -9 8 -4 -11 3 -17 1 -30 -7 -34 -8 -6 -10 -4 -4 6 5 8 4 11 0 6 -5 -4 -10
-24 -12 -44 -2 -21 -13 -46 -24 -56 -11 -11 -18 -25 -15 -33 3 -8 1 -14 -4
-14 -5 0 -7 -7 -4 -15 4 -8 1 -15 -6 -15 -7 0 -10 -8 -7 -20 3 -12 0 -20 -8
-20 -9 0 -11 -8 -7 -22 3 -13 1 -19 -5 -15 -6 4 -13 -2 -16 -13 -3 -13 -1 -18
6 -14 8 5 7 2 0 -7 -7 -7 -13 -21 -13 -30 0 -10 -5 -19 -10 -21 -6 -2 -11 -14
-12 -28 -1 -14 -6 -31 -11 -37 -5 -7 -7 -20 -3 -28 3 -9 2 -13 -4 -10 -9 6
-14 -8 -11 -27 0 -5 -7 -8 -17 -8 -10 0 -13 -3 -7 -8 15 -10 12 -62 -4 -71 -8
-5 -11 -13 -7 -19 3 -6 0 -13 -6 -15 -9 -4 -8 -6 2 -7 10 0 6 -6 -10 -16 -14
-8 -17 -13 -7 -10 16 5 16 4 1 -19 -13 -19 -14 -28 -5 -39 9 -11 7 -17 -9 -29
-15 -10 -18 -17 -10 -22 9 -5 9 -9 1 -14 -6 -4 -12 -19 -13 -33 -1 -15 -6 -24
-12 -21 -5 4 -7 -2 -4 -13 3 -11 -1 -26 -9 -33 -11 -10 -12 -16 -4 -24 6 -6
11 -16 11 -21 0 -6 -5 -4 -10 4 -8 12 -10 10 -11 -10 -2 -41 -6 -64 -15 -84
-5 -14 -4 -17 4 -12 8 5 10 2 6 -8 -3 -9 -11 -16 -16 -16 -6 0 -4 -8 3 -17 8
-10 9 -14 2 -10 -6 4 -14 3 -18 -3 -3 -5 -1 -10 6 -10 8 0 7 -6 -4 -18 -11
-12 -13 -22 -6 -35 7 -12 7 -17 -1 -15 -7 2 -14 -10 -16 -27 -2 -22 -1 -26 6
-15 6 9 10 10 10 3 0 -6 -5 -15 -11 -19 -6 -3 -9 -14 -6 -24 3 -11 -2 -29 -11
-41 -8 -12 -10 -19 -4 -15 16 9 15 -7 0 -22 -9 -9 -9 -12 2 -12 11 0 12 -2 3
-8 -15 -9 -20 -72 -8 -92 8 -13 6 -13 -8 -2 -14 12 -16 11 -12 -7 2 -11 -1
-23 -6 -27 -6 -4 -6 -11 2 -20 9 -11 8 -14 -2 -14 -9 0 -10 -3 -4 -8 12 -9 18
-32 8 -31 -20 3 -26 -2 -13 -11 13 -9 13 -10 0 -10 -13 0 -13 -1 0 -10 13 -9
13 -11 0 -20 -8 -5 -10 -10 -5 -10 6 0 11 -16 11 -35 0 -20 -5 -34 -11 -32 -7
3 -10 -49 -9 -155 0 -88 -4 -162 -8 -164 -5 -3 -5 -11 -1 -17 9 -15 10 -546 1
-541 -4 3 -5 -2 -2 -10 3 -9 10 -14 14 -11 5 3 12 1 15 -5 4 -6 1 -9 -6 -8
-16 4 -19 -159 -3 -173 15 -12 10 -65 -5 -61 -7 1 -10 -2 -6 -8 3 -6 11 -7 17
-4 7 5 9 -2 6 -20 -3 -15 -1 -26 6 -26 6 0 4 -5 -4 -10 -10 -6 -11 -10 -2 -10
6 0 12 -5 12 -11 0 -5 -6 -7 -12 -3 -7 4 -5 -2 4 -13 10 -11 18 -24 18 -29 0
-5 -4 -3 -9 4 -5 9 -8 4 -7 -16 1 -17 5 -27 10 -24 5 3 7 -1 4 -10 -4 -8 -2
-21 2 -29 6 -8 4 -16 -3 -21 -8 -5 -8 -8 -1 -8 7 0 10 -13 8 -31 -2 -16 0 -28
4 -25 5 3 9 -1 9 -9 0 -8 -3 -12 -7 -10 -4 2 -7 -2 -7 -10 0 -8 4 -12 8 -10 3
3 9 -4 12 -16 5 -18 3 -18 -11 -7 -16 12 -16 11 0 -7 10 -12 16 -35 15 -57 -1
-20 1 -34 4 -32 4 2 10 -3 13 -12 3 -8 2 -12 -4 -9 -6 3 -7 -1 -4 -9 3 -9 11
-16 18 -16 6 0 4 -5 -4 -10 -12 -7 -12 -10 -1 -10 7 0 11 -6 8 -14 -3 -7 1
-23 9 -34 10 -15 11 -23 3 -28 -8 -4 -9 -3 -5 4 4 7 2 12 -3 12 -16 0 -13 -20
4 -26 11 -5 12 -11 5 -24 -7 -13 -7 -21 0 -25 5 -3 10 -17 10 -30 0 -13 8 -29
18 -35 16 -11 16 -11 -2 -6 -15 5 -17 4 -7 -7 6 -8 12 -26 13 -40 2 -21 5 -24
17 -14 12 10 13 9 3 -10 -10 -17 -9 -25 4 -37 8 -9 11 -16 6 -16 -5 0 -9 -7
-9 -15 0 -8 5 -15 10 -15 5 0 4 -6 -2 -14 -10 -11 -8 -16 5 -24 11 -6 15 -17
11 -31 -3 -11 -2 -19 3 -16 4 3 11 -2 14 -11 4 -10 2 -13 -7 -8 -6 4 -3 -3 8
-16 11 -13 14 -20 7 -16 -8 5 -5 -5 6 -26 10 -18 17 -43 16 -56 -1 -12 3 -22
8 -22 5 0 6 -5 3 -10 -3 -5 -1 -10 4 -10 6 0 10 -3 10 -7 -4 -22 2 -33 13 -27
9 5 9 2 -1 -9 -12 -15 -11 -17 5 -17 14 0 16 -2 6 -9 -11 -6 -10 -10 3 -15 14
-5 15 -9 5 -21 -10 -12 -9 -15 6 -15 16 0 17 -2 4 -10 -9 -6 -11 -10 -3 -10 7
0 10 -7 7 -15 -3 -8 1 -21 10 -30 8 -9 13 -22 10 -29 -3 -8 0 -17 5 -21 6 -3
9 -11 6 -16 -4 -5 1 -9 11 -9 13 0 14 -3 5 -14 -9 -11 -9 -15 1 -19 10 -4 10
-8 -2 -16 -13 -9 -13 -11 2 -11 9 0 20 -5 24 -12 5 -7 2 -8 -7 -3 -11 6 -12 5
-1 -6 6 -7 12 -21 12 -30 0 -10 5 -21 12 -25 7 -5 8 -3 3 6 -5 8 -4 11 2 7 5
-3 9 -23 8 -43 -2 -35 -1 -36 12 -18 13 17 14 16 8 -13 -4 -26 -1 -34 16 -43
17 -10 18 -14 7 -28 -10 -12 -10 -14 0 -8 8 5 12 0 12 -14 0 -14 4 -19 12 -14
7 5 9 2 5 -8 -3 -9 0 -21 6 -28 9 -10 9 -11 -3 -6 -9 5 -9 2 2 -7 10 -8 15
-17 11 -20 -3 -4 -1 -7 6 -7 7 0 9 -5 6 -10 -3 -5 -2 -10 2 -10 5 0 14 -9 21
-21 8 -12 9 -18 3 -14 -6 3 -11 2 -11 -3 0 -6 7 -13 16 -16 9 -3 14 -13 10
-21 -3 -8 4 -21 17 -30 12 -8 16 -15 9 -15 -10 0 -10 -3 0 -14 7 -8 18 -11 23
-8 6 3 5 -1 -2 -9 -10 -12 -9 -18 7 -32 11 -9 20 -25 20 -36 0 -10 13 -33 29
-50 16 -17 24 -31 18 -31 -7 0 0 -10 15 -21 16 -12 25 -26 21 -34 -3 -8 0 -15
5 -15 6 0 9 -9 7 -19 -3 -15 1 -18 12 -14 11 4 14 2 9 -5 -4 -7 -2 -12 4 -12
6 0 8 -4 5 -10 -3 -5 -1 -10 4 -10 6 0 11 -8 11 -19 0 -22 23 -44 35 -33 4 4
2 -4 -5 -17 -6 -13 -7 -21 -2 -17 13 8 51 -44 45 -61 -3 -7 2 -16 11 -19 9 -3
16 -10 16 -16 0 -5 7 -16 16 -25 8 -9 13 -22 10 -30 -4 -9 1 -17 14 -20 11 -3
20 -12 20 -20 0 -8 5 -11 12 -7 7 4 8 3 4 -5 -11 -17 12 -41 32 -34 10 3 13 1
7 -4 -16 -13 -15 -30 3 -45 16 -12 16 -11 2 7 -14 19 -14 19 2 6 10 -7 18 -20
18 -27 0 -8 5 -14 10 -14 6 0 10 -7 10 -16 0 -9 5 -12 12 -8 6 4 8 3 5 -2 -7
-12 2 -27 28 -43 16 -10 16 -11 2 -7 -17 5 -17 5 0 -18 10 -13 22 -21 27 -18
5 3 7 -2 3 -11 -3 -9 -1 -19 5 -23 7 -5 8 -2 3 6 -5 9 -4 11 3 6 7 -4 12 -13
12 -19 0 -7 8 -20 17 -29 30 -28 42 -46 36 -52 -4 -3 2 -6 11 -6 12 0 16 -5
12 -16 -3 -9 -2 -12 5 -9 6 4 9 -1 7 -11 -2 -11 2 -18 10 -16 7 1 17 -9 22
-22 5 -14 21 -33 35 -42 14 -9 24 -23 21 -30 -3 -8 -1 -14 5 -14 6 0 17 -7 25
-15 9 -8 13 -15 10 -15 -3 0 3 -9 14 -20 12 -12 25 -18 29 -15 5 3 7 -4 4 -15
-4 -16 0 -20 18 -21 13 0 18 -3 11 -6 -9 -3 -7 -10 9 -23 11 -11 24 -20 27
-22 4 -2 18 -17 32 -33 l25 -30 -35 30 -35 30 29 -33 c17 -17 36 -32 43 -32 7
0 13 -7 13 -16 0 -9 5 -12 12 -8 7 5 9 0 6 -14 -5 -16 -2 -20 13 -17 10 2 18
1 16 -3 -3 -13 37 -51 47 -45 6 4 5 0 -2 -9 -11 -13 -10 -16 5 -14 11 0 18 -5
17 -16 -1 -9 4 -14 10 -12 6 2 20 -2 31 -11 20 -15 20 -15 0 -10 -16 5 -16 3
2 -6 13 -7 23 -16 23 -21 0 -5 4 -6 10 -3 5 3 10 -1 10 -10 0 -11 5 -15 14
-12 11 4 13 1 9 -10 -4 -11 -2 -14 5 -9 7 4 12 1 12 -9 0 -9 4 -14 9 -11 5 3
12 -1 15 -10 3 -8 10 -12 16 -9 6 4 7 -1 3 -11 -4 -12 -3 -15 5 -10 7 4 12 2
12 -4 0 -6 5 -8 10 -5 6 3 10 -1 10 -9 0 -9 7 -16 16 -16 8 0 12 -4 9 -10 -3
-6 4 -10 16 -10 12 0 19 -3 15 -7 -3 -4 6 -13 21 -20 16 -7 19 -11 9 -8 -19 6
-19 5 -1 -15 10 -11 24 -20 32 -20 7 0 16 -7 19 -15 4 -8 10 -12 15 -9 5 3 9
-2 9 -10 0 -9 7 -16 15 -16 8 0 15 -5 15 -10 0 -6 11 -16 25 -22 14 -6 25 -17
25 -25 0 -7 5 -13 11 -13 5 0 7 6 4 13 -4 6 0 4 8 -5 8 -10 18 -14 23 -10 4 4
2 -1 -5 -11 -12 -15 -12 -17 3 -11 9 3 16 1 16 -6 0 -6 5 -8 10 -5 6 3 10 1
10 -5 0 -6 4 -8 10 -5 6 3 10 -4 10 -17 0 -18 2 -20 10 -8 7 12 10 12 10 1 0
-7 6 -11 15 -7 8 3 14 2 14 -2 -3 -20 3 -32 16 -32 8 0 15 -4 15 -10 0 -5 9
-10 19 -10 11 0 23 -5 27 -12 5 -7 2 -8 -7 -3 -8 4 -5 -1 6 -12 13 -14 22 -16
27 -9 5 8 8 7 8 -2 0 -7 8 -16 17 -19 24 -9 44 -29 36 -36 -3 -4 4 -4 16 -2
12 2 19 0 16 -5 -3 -5 4 -11 15 -15 11 -3 20 -11 20 -16 0 -5 7 -9 16 -9 8 0
22 -7 31 -15 8 -8 19 -13 24 -10 5 4 9 -4 9 -17 0 -18 2 -20 10 -8 7 11 10 11
10 2 0 -8 5 -10 12 -6 7 5 9 2 6 -7 -4 -10 1 -15 13 -16 11 -1 27 -9 36 -19 9
-9 29 -21 45 -26 15 -6 28 -14 28 -20 0 -5 5 -6 10 -3 6 3 10 0 10 -9 0 -8 8
-13 17 -12 10 2 26 -7 36 -18 10 -12 15 -14 11 -6 -7 13 -5 13 9 1 9 -7 14
-18 11 -23 -4 -6 2 -8 15 -3 13 4 21 2 21 -5 0 -6 4 -8 10 -5 5 3 10 1 10 -6
0 -7 3 -9 7 -6 3 4 12 -1 20 -11 8 -9 11 -11 8 -4 -6 11 -3 12 14 3 11 -7 21
-14 21 -17 0 -3 -5 -2 -12 2 -7 4 -8 3 -4 -5 6 -9 11 -9 22 0 12 9 13 9 9 -3
-4 -10 1 -14 17 -14 13 1 22 -4 21 -9 -1 -6 6 -12 15 -13 38 -4 53 -9 64 -20
7 -7 20 -12 29 -12 9 0 20 -7 23 -16 3 -8 10 -13 15 -10 5 4 11 2 13 -4 1 -5
15 -11 30 -12 19 -2 24 -6 17 -14 -7 -8 -1 -11 21 -9 16 1 27 -1 24 -6 -3 -5
3 -9 13 -9 23 -1 55 -25 45 -35 -4 -4 3 -3 15 4 18 9 24 8 37 -11 10 -14 16
-17 16 -8 0 10 5 8 16 -6 8 -10 13 -12 9 -4 -4 9 -1 8 8 -3 11 -14 16 -15 20
-5 3 8 6 6 6 -5 1 -11 6 -15 12 -11 6 3 15 0 20 -7 7 -11 9 -11 9 -1 0 7 5 10
10 7 8 -5 7 -12 -2 -23 -11 -15 -11 -15 3 -4 20 15 38 13 59 -8 8 -9 11 -10 6
-3 -6 10 -4 12 8 7 9 -3 16 -10 16 -14 0 -4 7 -11 16 -14 8 -3 13 -2 10 3 -4
5 3 7 15 4 16 -5 18 -8 7 -15 -9 -7 -4 -8 15 -5 18 3 30 -1 36 -11 5 -9 15
-12 25 -9 9 4 16 2 16 -4 0 -6 9 -8 21 -4 15 5 19 4 15 -4 -6 -10 13 -16 37
-12 4 0 7 -5 7 -11 0 -9 4 -8 10 2 7 11 10 11 10 2 0 -7 4 -10 10 -7 5 3 10 1
10 -5 0 -7 7 -10 15 -7 8 4 17 2 20 -3 4 -6 15 -10 26 -10 10 0 19 -6 19 -12
0 -9 4 -8 10 2 6 10 10 11 10 3 0 -7 9 -13 20 -13 11 0 20 -4 20 -8 0 -5 12
-8 28 -7 15 1 34 -4 42 -11 9 -8 32 -12 52 -11 20 2 36 -1 35 -6 -1 -5 4 -12
12 -15 8 -2 11 0 8 5 -3 5 0 10 8 10 8 0 13 -5 12 -11 -1 -5 15 -10 35 -10 20
0 35 -3 32 -8 -3 -4 -2 -8 3 -9 4 0 16 -2 26 -4 9 -2 17 2 17 8 0 6 6 3 13 -8
10 -13 16 -15 21 -6 5 8 12 6 24 -7 9 -10 13 -11 7 -3 -9 12 -7 12 13 2 13 -7
30 -10 37 -7 8 3 17 0 21 -6 5 -7 2 -8 -6 -3 -8 5 -11 4 -6 -3 4 -6 14 -8 23
-5 9 4 14 2 11 -3 -4 -5 16 -9 44 -8 33 1 55 -4 66 -15 15 -15 15 -15 9 2 -3
9 -2 17 2 17 5 0 11 -6 14 -14 4 -10 15 -13 31 -10 14 2 28 -1 32 -7 4 -8 9
-7 15 2 7 11 9 9 9 -5 0 -19 1 -19 13 -2 13 17 14 17 20 2 5 -13 11 -15 26 -6
25 13 40 13 21 -1 -12 -8 -7 -9 18 -6 17 2 32 0 32 -4 0 -5 7 -5 17 -2 12 5
14 3 8 -7 -6 -10 -4 -11 6 -4 19 12 33 12 41 -1 5 -6 8 -4 8 5 0 12 2 12 8 2
11 -16 134 -24 125 -8 -4 6 1 5 10 -3 9 -7 17 -10 17 -7 0 4 9 2 20 -4 13 -7
20 -7 20 -1 0 7 9 7 26 1 32 -12 37 -12 29 0 -8 14 25 1 50 -19 18 -15 19 -15
7 0 -17 22 -2 33 15 11 8 -9 12 -11 8 -5 -4 9 -1 11 9 7 9 -3 16 -11 16 -18 0
-6 5 -4 10 4 8 12 11 13 19 1 7 -11 10 -11 15 0 5 11 7 11 12 1 5 -10 9 -10
20 -1 11 9 14 8 14 -2 0 -10 3 -10 11 -2 9 9 18 7 37 -5 15 -9 23 -12 19 -5
-4 6 -3 14 3 18 5 3 10 1 10 -6 0 -7 10 -9 25 -7 14 3 25 1 25 -5 0 -6 3 -7 7
-4 3 4 13 1 22 -5 13 -10 14 -10 4 2 -7 8 -13 18 -13 23 0 4 6 5 13 0 22 -14
57 -14 57 -1 0 9 2 10 8 2 8 -14 94 -26 86 -12 -3 4 -10 5 -16 2 -7 -4 -8 -2
-4 4 5 8 13 8 31 0 19 -8 28 -8 42 3 9 8 14 9 10 2 -5 -8 3 -11 28 -10 19 1
35 7 35 12 0 7 3 7 8 0 10 -14 32 -17 32 -5 0 7 7 7 21 -1 15 -8 19 -8 15 0
-4 6 -3 11 3 11 5 0 13 -5 16 -11 5 -7 13 -5 25 6 17 15 19 15 29 -2 6 -11 11
-13 11 -5 0 7 4 10 10 7 6 -4 7 1 3 12 -6 16 -5 17 13 3 10 -8 23 -19 27 -25
5 -6 6 -2 3 9 -4 13 -2 17 8 13 7 -3 19 0 26 6 9 9 11 9 7 1 -5 -8 2 -11 17
-10 13 0 22 4 21 7 -2 3 27 5 65 4 49 -2 68 1 63 9 -4 6 1 5 10 -3 15 -12 17
-11 17 5 0 15 2 16 9 5 11 -18 61 -22 54 -5 -3 8 6 11 27 10 17 -1 33 1 36 6
3 5 11 5 17 1 16 -10 58 -4 76 10 12 10 13 9 6 -3 -6 -12 -5 -12 5 -3 7 6 19
9 28 6 9 -4 13 -2 9 3 -4 6 6 9 24 6 16 -2 37 2 46 9 9 8 14 9 10 3 -3 -6 0
-11 8 -11 8 0 11 5 8 10 -3 6 7 8 25 5 17 -2 29 -1 26 4 -3 5 6 6 19 3 18 -5
28 -2 36 12 10 17 10 17 11 1 0 -22 18 -24 26 -3 4 8 10 15 16 15 5 0 6 -6 2
-12 -4 -7 3 -4 16 7 14 12 20 14 15 5 -6 -12 -5 -13 6 -2 16 15 33 16 23 0 -4
-7 -3 -8 4 -4 7 4 12 15 13 24 0 11 2 13 6 4 4 -10 8 -10 21 0 13 11 14 11 7
-2 -7 -12 -6 -13 6 -3 12 10 18 10 29 0 7 -6 10 -7 8 -2 -3 6 0 15 7 22 10 10
14 9 19 -2 3 -8 11 -15 18 -15 9 0 8 3 -2 10 -16 11 -16 11 20 16 55 7 70 11
77 19 5 4 2 5 -6 0 -8 -5 -12 -4 -8 2 3 5 20 8 37 7 20 -1 30 2 27 9 -3 8 11
12 45 11 38 -1 48 2 44 13 -5 11 -1 11 15 2 17 -8 20 -8 14 1 -5 9 -1 10 15 5
19 -6 22 -4 17 9 -5 14 -3 15 13 6 23 -12 41 -13 22 -1 -10 6 -9 10 7 14 12 3
21 0 21 -6 1 -7 8 -1 16 13 8 14 13 17 10 8 -3 -10 -1 -18 4 -18 6 0 10 5 10
12 0 6 3 8 7 5 3 -4 12 1 20 11 8 9 12 11 8 5 -3 -7 -2 -13 3 -13 6 0 13 7 16
16 5 13 9 14 22 3 12 -10 15 -10 12 2 -2 8 3 13 11 11 8 -2 17 2 21 7 3 6 15
12 27 14 12 1 28 8 35 15 8 6 18 9 21 5 4 -3 7 0 7 8 0 11 2 11 10 -1 7 -12
10 -12 10 -1 0 8 6 11 16 7 8 -3 13 -2 10 3 -3 5 1 12 10 15 8 3 13 2 10 -3
-4 -5 5 -4 18 2 13 7 22 15 20 19 -3 5 6 8 20 8 14 0 28 5 31 11 4 6 13 8 21
5 8 -3 14 -1 14 5 0 6 5 7 10 4 6 -3 13 1 16 10 6 13 8 14 15 3 6 -9 9 -9 9
-1 0 6 9 10 20 8 11 -2 19 1 17 8 -1 7 6 11 17 9 10 -2 15 1 11 7 -4 7 0 8 11
4 14 -5 16 -3 10 13 -5 15 -4 16 5 7 14 -14 42 -5 32 11 -4 6 1 5 11 -3 14
-12 17 -12 14 -1 -2 8 5 14 17 14 11 0 25 7 32 16 7 8 13 11 13 6 0 -6 6 -2
13 8 7 10 28 18 49 19 20 1 36 4 36 7 -2 24 4 32 22 27 11 -3 18 0 17 7 -1 6
6 10 16 9 11 0 16 4 14 11 -3 6 4 13 14 14 43 4 47 6 42 19 -4 9 0 11 11 7 9
-3 16 -1 16 6 0 6 5 8 10 5 6 -3 10 -1 10 4 0 6 3 10 8 10 21 -4 32 2 26 13
-5 8 -2 9 9 5 9 -3 19 -2 23 4 3 6 12 8 20 5 8 -3 11 0 7 10 -3 9 2 14 15 14
12 0 24 5 27 10 4 6 11 8 16 5 5 -3 6 1 3 9 -4 10 0 14 13 12 10 -2 26 6 36
17 9 11 17 16 17 12 0 -5 7 0 16 11 8 10 13 13 9 6 -5 -10 -1 -10 19 -1 14 7
23 16 20 20 -3 5 0 10 5 10 6 1 14 2 19 3 4 0 19 11 32 24 14 13 33 21 42 19
10 -3 17 -2 16 2 -2 19 4 31 22 41 16 9 19 8 14 -7 -3 -10 4 -2 16 17 12 19
19 27 16 18 -4 -12 -1 -15 10 -11 8 3 13 12 10 20 -3 8 -2 11 3 8 5 -3 13 0
16 6 4 5 14 8 22 5 8 -3 11 -1 8 4 -3 6 -1 10 5 10 6 0 8 5 4 12 -5 8 -2 9 10
5 13 -5 17 -3 13 7 -4 10 -1 13 7 10 7 -3 24 8 38 24 13 15 29 27 36 24 7 -2
12 1 12 8 0 6 4 9 9 6 5 -4 11 -1 13 4 2 6 12 13 23 14 11 2 19 9 17 16 -1 6
7 14 18 17 11 3 20 11 20 19 0 7 6 11 13 8 8 -3 20 3 28 12 12 15 12 17 0 9
-9 -5 -12 -4 -7 3 3 6 16 9 27 7 17 -3 19 -2 9 10 -10 12 -8 13 9 10 11 -2 20
-1 20 3 -3 21 3 31 16 26 9 -4 15 0 15 9 0 9 5 19 12 23 7 5 9 2 4 -7 -4 -8 2
-3 13 11 11 14 21 29 21 34 0 5 3 6 6 3 4 -4 1 -15 -6 -24 -8 -10 0 -5 16 12
16 16 28 33 26 37 -1 5 5 8 14 8 11 0 14 5 10 16 -6 15 -4 15 11 3 15 -12 16
-12 10 3 -4 12 -2 15 9 11 8 -3 14 1 14 9 0 8 10 23 23 34 l22 19 -20 -25
c-10 -14 -2 -8 19 12 24 24 35 42 30 50 -6 10 -3 9 9 -1 15 -12 17 -11 17 3 0
9 6 16 14 16 8 0 18 5 22 12 5 7 3 8 -6 3 -9 -5 -11 -4 -6 3 4 7 14 12 22 12
8 0 12 4 9 10 -3 5 -1 10 4 10 6 0 29 18 51 40 25 25 46 38 53 33 9 -5 9 -3 1
8 -9 11 -9 17 1 26 7 6 15 9 19 6 3 -3 10 6 15 20 6 14 19 31 31 37 12 6 18
16 13 23 -4 7 2 5 12 -3 10 -8 16 -9 11 -3 -4 7 2 20 14 30 11 10 20 23 20 31
0 7 5 10 10 7 6 -3 13 2 17 12 4 10 15 24 25 31 10 7 16 18 13 23 -3 5 1 6 10
3 9 -4 15 -3 14 2 -3 18 1 34 9 32 4 -2 8 1 9 5 1 5 9 14 19 21 11 9 14 18 9
27 -7 11 -5 11 10 -1 17 -14 18 -13 13 7 -3 12 -3 22 1 21 26 -3 33 3 21 17
-11 13 -10 14 4 9 10 -4 16 -1 16 8 0 8 9 23 20 33 11 10 17 23 13 29 -4 6 2
4 12 -4 10 -8 16 -10 12 -4 -4 7 0 15 9 18 9 3 14 13 11 21 -4 8 12 33 38 61
25 26 42 50 40 55 -3 4 0 11 6 15 8 5 9 3 4 -6 -6 -9 -4 -11 4 -5 7 4 11 16 8
26 -3 10 0 17 7 16 6 -1 10 4 8 11 -1 6 5 12 13 12 8 0 15 6 15 14 0 7 10 21
23 30 12 9 17 15 11 12 -6 -3 -11 1 -11 9 0 7 8 12 18 10 13 -3 17 2 14 16 -2
10 1 18 8 16 7 -1 11 4 9 11 -1 6 6 12 15 12 15 0 16 2 3 10 -13 8 -12 10 3
10 9 0 17 5 17 11 0 5 -6 7 -12 3 -7 -4 -2 4 12 18 14 13 28 23 32 21 3 -2 4
7 0 19 -4 17 -2 20 12 15 9 -4 15 -3 12 1 -3 5 4 23 15 41 11 18 17 37 13 42
-3 5 0 8 7 7 7 -2 13 4 14 12 0 9 8 14 20 12 20 -4 20 -3 0 12 -18 14 -18 15
-2 16 9 0 17 7 17 16 0 8 5 12 11 9 6 -4 10 -1 8 6 -3 26 1 40 10 34 5 -3 12
-1 16 5 3 5 0 10 -7 10 -7 0 -2 10 12 21 14 11 18 17 10 13 -13 -7 -13 -6 0
12 8 10 20 25 27 32 6 7 10 21 8 32 -2 12 1 17 8 14 8 -3 13 6 15 21 1 18 -2
24 -10 19 -7 -4 -8 -3 -4 4 4 6 14 8 23 5 11 -4 14 -3 9 5 -4 7 -2 12 4 12 6
0 8 5 5 10 -3 6 -1 10 5 10 6 0 9 4 5 9 -3 5 0 13 6 16 5 4 8 14 5 24 -5 12
-2 11 9 -3 14 -19 15 -18 11 12 -2 23 1 32 11 32 9 0 13 6 10 14 -3 8 1 17 8
20 9 3 12 12 8 22 -4 11 -3 15 5 10 7 -4 10 1 7 14 -2 12 1 20 10 20 8 0 12 9
11 25 -2 13 1 22 5 19 5 -3 9 4 9 15 0 11 5 23 11 26 6 4 8 14 4 22 -5 13 -3
14 10 3 14 -12 15 -10 10 11 -4 17 -1 30 9 38 9 7 13 17 10 22 -3 5 -1 9 5 9
5 0 8 9 6 19 -3 15 1 18 12 14 11 -4 14 -3 9 6 -5 7 -1 20 6 29 23 26 33 46
20 38 -18 -11 -14 9 3 24 9 7 13 15 10 18 -3 3 0 11 6 18 6 8 9 20 5 29 -3 8
0 14 7 12 8 -1 11 11 10 37 0 22 2 33 7 26 10 -16 19 -1 22 40 1 18 8 34 15
37 6 3 9 11 6 19 -3 8 0 14 7 14 10 0 9 4 0 16 -11 12 -11 15 0 12 9 -2 14 8
15 32 1 19 7 36 13 38 6 2 9 9 6 17 -3 7 5 21 18 30 13 10 16 15 7 12 -9 -3
-16 1 -16 8 0 8 5 13 11 12 6 -1 11 13 12 31 0 18 6 37 13 41 6 4 13 21 15 37
1 16 8 28 14 27 8 -2 9 4 2 23 -7 19 -7 23 2 18 8 -5 9 -2 5 9 -7 19 9 33 16
15 3 -7 3 7 0 31 -4 35 -2 42 8 36 11 -6 11 -5 2 5 -12 13 -6 43 7 35 5 -3 12
0 16 6 4 7 3 9 -4 5 -6 -3 -13 -2 -17 4 -3 5 -1 10 6 10 8 0 7 5 -2 17 -8 9
-9 14 -3 10 7 -4 14 1 17 13 3 10 0 21 -7 24 -6 2 -3 5 8 5 13 1 17 6 13 20
-3 11 2 30 11 42 8 12 10 19 4 15 -7 -4 -12 -1 -12 9 0 9 4 13 10 10 7 -4 7 3
0 20 -8 20 -7 27 5 31 8 4 15 10 15 16 0 5 -6 6 -12 2 -10 -6 -10 -5 -1 8 7 8
10 18 6 21 -3 4 -1 7 6 7 9 0 9 5 0 21 -7 13 -7 19 -1 15 6 -3 13 -2 17 4 3 5
1 10 -5 10 -6 0 -8 5 -5 10 4 6 11 7 17 4 6 -4 6 1 -1 14 -14 26 -14 35 -1 27
7 -4 9 3 6 19 -3 16 0 26 7 26 7 0 6 4 -3 10 -14 9 -7 14 15 11 6 -1 1 6 -9
14 -19 14 -19 15 -2 15 15 0 16 3 7 14 -9 11 -9 16 0 21 8 6 7 10 -2 16 -10 6
-10 9 -2 9 7 0 10 7 6 17 -4 11 -3 14 6 9 14 -9 11 16 -4 26 -6 4 -2 13 9 21
15 11 16 16 6 22 -9 6 -11 4 -5 -5 6 -9 4 -11 -5 -5 -10 6 -10 10 3 20 12 9
14 14 5 23 -9 9 -9 12 -1 12 7 0 10 9 8 20 -2 11 1 22 7 26 7 5 7 9 -1 13 -7
5 -6 15 3 33 13 24 12 26 -2 20 -15 -5 -15 -4 -2 12 17 22 23 49 7 39 -7 -4
-8 0 -4 11 4 10 7 20 7 22 0 3 3 3 8 1 14 -9 7 48 -8 61 -8 8 -10 11 -4 8 17
-8 20 9 19 91 -1 40 3 69 8 66 5 -3 4 5 -3 17 -11 21 -10 22 6 16 18 -6 18 -5
2 8 -20 15 -25 31 -6 20 7 -5 8 -3 3 6 -11 17 -13 90 -3 90 5 0 8 5 8 11 0 5
-4 8 -8 5 -5 -3 -8 5 -8 17 1 12 7 26 13 30 10 6 9 13 -3 32 -15 23 -15 25 2
26 18 0 18 1 -1 9 -11 5 -14 9 -7 9 7 1 10 6 7 12 -4 6 -8 23 -9 39 -2 21 2
27 14 23 13 -4 13 -3 0 6 -16 11 -19 46 -7 75 6 11 5 16 0 13 -6 -4 -9 25 -9
68 1 45 -3 75 -9 75 -5 0 -3 5 5 10 13 8 12 10 -4 10 -19 0 -19 0 -1 13 12 10
14 16 7 21 -7 4 -12 2 -12 -5 0 -7 -2 -10 -5 -7 -3 3 -1 17 5 32 6 18 6 25 0
21 -13 -8 -13 8 1 22 8 8 7 13 -2 18 -8 6 -10 4 -4 -5 5 -9 4 -11 -4 -6 -9 6
-9 11 0 22 7 9 8 14 1 14 -7 0 -8 10 -2 29 6 22 4 33 -7 43 -13 11 -13 13 4
19 17 7 17 8 0 8 -10 1 -15 5 -12 11 3 6 1 10 -5 10 -6 0 -8 5 -5 10 4 6 11 7
17 4 5 -4 2 6 -8 22 -14 21 -15 26 -4 20 12 -7 13 -6 3 4 -9 9 -9 19 -2 33 8
13 8 17 1 13 -7 -4 -9 4 -8 21 2 16 -1 34 -8 42 -6 8 -6 12 -1 9 6 -4 10 6 10
22 0 17 -4 26 -12 23 -13 -5 -12 14 1 36 6 10 5 12 -2 7 -8 -5 -11 3 -8 23 2
17 0 31 -5 31 -5 0 -5 7 -2 17 5 12 3 14 -8 8 -11 -7 -11 -5 1 10 9 11 10 16
3 11 -9 -5 -13 0 -14 16 -3 65 -5 76 -14 89 -6 8 -10 26 -9 42 0 15 -3 27 -7
27 -5 0 -9 5 -9 11 0 5 5 7 11 3 8 -4 8 0 0 15 -7 11 -17 21 -24 21 -8 0 -8 3
2 9 8 5 9 11 3 15 -6 4 -9 15 -7 26 2 13 0 18 -7 14 -7 -4 -8 1 -3 16 5 14 3
20 -3 16 -7 -4 -9 7 -8 28 2 22 -2 37 -10 40 -8 3 -11 12 -8 21 3 8 11 12 18
9 6 -3 2 2 -9 11 -13 10 -19 25 -17 40 2 17 -1 25 -12 25 -9 0 -16 5 -16 11 0
6 6 7 13 2 6 -4 4 6 -7 21 -10 16 -14 26 -9 23 5 -4 10 0 10 8 0 8 -4 12 -9 9
-4 -3 -9 3 -10 13 0 10 -2 23 -3 28 -2 6 -4 15 -5 20 -1 6 -2 13 -1 18 0 4 -4
7 -10 7 -5 0 -8 4 -5 9 4 5 0 12 -6 14 -10 4 -10 6 0 6 8 1 6 8 -7 23 -17 17
-18 24 -8 37 10 12 9 13 -2 6 -11 -6 -13 -4 -8 8 4 10 0 20 -11 26 -14 8 -14
10 -2 11 12 0 12 2 2 9 -7 4 -14 18 -15 29 -1 12 -5 22 -9 22 -4 0 -8 9 -8 21
0 13 -4 18 -12 13 -8 -5 -7 0 2 11 13 17 13 18 -1 13 -11 -4 -15 1 -15 21 1
14 -5 26 -11 26 -7 0 -12 5 -10 10 1 6 8 9 14 9 7 -1 10 2 7 7 -3 5 -11 9 -19
9 -7 0 -16 7 -19 16 -4 10 -2 13 7 8 9 -6 9 -5 0 8 -7 8 -10 18 -6 21 3 4 1 7
-6 7 -7 0 -9 5 -6 10 3 6 0 10 -7 10 -9 0 -9 3 2 10 11 7 11 10 2 10 -7 0 -10
5 -7 10 3 6 1 10 -4 10 -6 0 -11 9 -11 20 0 11 -5 20 -11 20 -5 0 -7 4 -4 10
3 5 -3 17 -13 26 -11 9 -18 26 -16 40 1 13 -1 22 -6 19 -4 -3 -11 11 -14 30
-4 19 -11 37 -16 40 -6 3 -7 -2 -4 -12 4 -13 3 -14 -3 -5 -6 7 -9 26 -8 41 1
22 -2 28 -13 23 -12 -4 -14 0 -10 16 4 12 1 25 -4 29 -7 4 -8 1 -3 -7 5 -9 4
-11 -3 -6 -7 4 -12 16 -12 27 0 10 -6 19 -12 19 -10 0 -10 2 0 9 11 7 10 9 -3
15 -9 3 -13 10 -10 16 3 5 1 10 -5 10 -6 0 -8 5 -4 12 5 7 2 9 -8 6 -8 -4 -15
0 -15 8 0 7 5 10 11 7 6 -4 5 1 -3 10 -7 9 -18 14 -25 10 -6 -4 -5 1 3 10 9
11 10 17 2 17 -6 0 -11 5 -11 11 0 7 -8 18 -17 26 -10 8 -12 11 -4 7 9 -4 12
-2 9 7 -3 8 -12 13 -21 13 -13 -1 -14 2 -7 16 7 13 6 20 -5 24 -8 3 -15 15
-15 26 0 11 -7 23 -16 27 -13 5 -13 7 -2 14 9 6 6 9 -12 10 -14 0 -19 3 -12 6
10 4 9 9 -5 20 -10 8 -13 12 -7 9 6 -3 11 1 11 9 0 8 -5 13 -10 12 -5 -1 -14
7 -20 18 -7 11 -16 23 -20 26 -4 3 -9 15 -10 26 -1 14 -6 19 -16 15 -9 -3 -12
-1 -7 6 8 14 -17 55 -27 45 -4 -3 -7 -1 -7 4 0 6 6 14 13 16 9 4 9 6 -1 6 -21
1 -44 28 -29 34 6 3 1 6 -12 6 -21 1 -22 3 -10 18 11 13 11 15 1 9 -9 -5 -15
-1 -19 13 -3 12 -10 21 -15 21 -5 0 -6 5 -2 12 5 8 2 9 -9 5 -14 -5 -15 -2 -7
19 9 23 8 24 -13 13 -19 -11 -20 -10 -9 3 10 13 10 17 -3 22 -9 3 -13 10 -10
16 3 5 -1 10 -9 10 -10 0 -13 6 -9 17 4 10 2 14 -4 10 -5 -3 -16 6 -24 21 -8
15 -20 31 -26 35 -7 4 -13 15 -13 22 0 8 -5 14 -11 12 -6 -1 -14 4 -17 12 -3
9 0 11 9 6 8 -5 11 -4 6 1 -5 5 -14 9 -20 9 -7 0 -11 8 -11 18 1 9 -2 15 -6
12 -4 -2 -16 5 -26 16 -17 19 -17 20 2 14 14 -5 13 -3 -4 7 -12 8 -19 17 -16
21 7 7 -11 11 -30 8 -5 -1 -3 6 5 15 9 12 9 15 2 10 -12 -7 -18 5 -14 28 1 5
-5 4 -13 -3 -13 -11 -15 -9 -11 9 2 13 2 20 -2 17 -7 -8 -33 18 -33 33 0 6 -5
8 -12 4 -8 -5 -9 -2 -5 10 4 9 3 15 -2 12 -12 -8 -33 19 -23 29 4 5 -1 5 -11
2 -11 -4 -16 -3 -12 3 3 6 1 10 -4 10 -6 0 -11 7 -11 16 0 9 -5 12 -12 8 -7
-5 -9 -1 -6 13 4 15 1 20 -11 19 -9 0 -15 5 -14 12 2 6 -4 12 -12 12 -8 0 -17
11 -21 25 -4 14 -9 24 -11 21 -7 -7 -32 18 -26 27 2 4 -3 7 -12 7 -10 0 -13 5
-9 12 5 8 2 9 -10 5 -14 -5 -17 -3 -12 8 3 9 0 15 -9 15 -8 0 -15 4 -15 8 0
11 -35 52 -44 52 -12 0 -36 27 -36 40 0 6 -4 8 -10 5 -5 -3 -10 -1 -10 5 0 6
-5 8 -12 4 -9 -5 -9 -2 1 9 12 15 11 17 -3 17 -10 0 -15 4 -12 9 3 5 -1 12
-10 15 -8 3 -12 2 -9 -4 3 -6 4 -10 0 -10 -3 0 -10 11 -15 25 -5 14 -16 25
-25 25 -8 0 -15 6 -15 14 0 8 -7 17 -16 20 -8 3 -13 10 -10 15 3 5 -4 7 -16 5
-13 -2 -17 -2 -10 2 13 6 17 25 5 23 -21 -3 -33 2 -33 15 0 8 -7 17 -16 20
-15 6 -15 4 -3 -11 13 -16 12 -17 -3 -4 -10 7 -18 19 -18 26 0 7 -8 19 -17 26
-17 13 -17 12 -4 -6 8 -11 -4 0 -26 24 -23 24 -45 41 -51 37 -5 -3 -13 1 -16
10 -4 10 -2 13 6 8 7 -4 8 -3 4 4 -4 7 -16 12 -27 12 -11 0 -17 5 -14 10 3 6
-1 10 -10 10 -9 0 -13 5 -10 10 6 9 -1 12 -22 9 -3 0 -10 6 -15 15 -5 9 -14
13 -20 10 -7 -4 -8 -2 -4 4 4 7 2 12 -4 12 -6 0 -9 4 -6 9 7 11 -22 23 -35 15
-5 -3 -8 -2 -7 3 3 10 -33 53 -45 53 -14 0 -36 27 -29 35 4 5 2 6 -3 2 -14 -8
-40 9 -40 25 0 7 -10 14 -22 16 -13 2 -23 8 -23 13 0 6 -4 8 -9 5 -5 -3 -12 1
-15 10 -3 9 -13 14 -21 11 -9 -4 -12 -1 -9 7 3 8 0 17 -7 22 -8 4 -10 3 -5 -4
13 -21 -10 -13 -30 10 -19 22 -19 23 1 8 19 -14 19 -14 6 3 -11 14 -16 15 -29
5 -13 -11 -15 -10 -9 4 4 13 1 16 -14 13 -11 -2 -17 0 -14 6 4 5 -1 9 -9 9 -9
0 -16 5 -16 11 0 6 -7 9 -14 6 -10 -4 -13 -1 -9 9 5 13 -13 20 -40 15 -5 -1
-6 3 -2 9 3 5 -1 10 -10 10 -9 0 -13 5 -10 10 3 6 -1 10 -10 10 -9 0 -26 10
-37 23 -11 12 -16 16 -13 9 6 -11 3 -11 -14 0 -12 7 -21 16 -21 21 0 4 -4 5
-10 2 -5 -3 -10 2 -10 12 0 15 -2 16 -10 3 -8 -12 -10 -12 -10 5 0 17 -2 17
-10 5 -8 -13 -10 -12 -10 4 0 14 -5 17 -21 13 -17 -5 -18 -3 -8 9 7 8 8 14 3
13 -26 -5 -45 2 -38 14 5 7 0 6 -11 -3 -17 -14 -18 -13 -12 4 6 14 4 17 -8 12
-8 -3 -15 -1 -15 4 0 5 -10 14 -21 21 -17 9 -20 8 -13 -3 6 -10 5 -11 -8 -1
-8 7 -18 9 -22 5 -4 -4 -7 -2 -6 3 5 24 -1 33 -20 28 -11 -3 -20 0 -20 6 0 6
-5 11 -11 11 -7 0 -18 8 -26 18 -8 9 -12 12 -9 5 4 -7 -1 -9 -15 -6 -16 4 -17
8 -7 14 9 6 8 9 -8 9 -11 0 -26 6 -33 13 -11 10 -12 9 -6 -2 6 -10 4 -12 -4
-7 -7 5 -10 15 -6 23 4 13 3 14 -9 4 -10 -8 -16 -9 -21 -1 -3 6 -11 8 -16 5
-5 -4 -12 1 -15 9 -3 9 -15 16 -25 16 -10 0 -19 5 -19 11 0 5 -4 8 -10 4 -5
-3 -17 2 -27 12 -10 10 -27 17 -37 15 -11 -3 -16 0 -12 7 5 7 -1 11 -14 11
-13 0 -19 4 -14 11 4 7 -2 6 -17 -2 -21 -11 -23 -11 -11 4 11 13 10 15 -12 13
-14 -2 -23 0 -21 4 6 9 -19 31 -31 29 -23 -4 -35 2 -28 14 5 8 2 8 -9 -2 -15
-12 -21 -9 -19 10 1 4 -7 5 -18 2 -11 -3 -27 2 -35 11 -9 9 -21 14 -26 11 -5
-4 -9 -1 -9 6 0 6 -8 9 -20 6 -11 -3 -23 0 -27 5 -4 7 -1 8 8 3 8 -5 11 -4 6
0 -4 5 -18 10 -30 12 -12 2 -23 8 -25 13 -2 5 -10 6 -18 3 -8 -3 -17 2 -20 12
-5 13 -9 14 -15 3 -6 -8 -9 -9 -9 -2 0 7 -14 11 -34 10 -29 -1 -33 1 -23 13
10 12 8 13 -10 9 -13 -4 -23 -2 -23 2 0 4 -9 6 -20 3 -14 -4 -20 0 -20 12 0
14 -3 15 -14 6 -11 -9 -16 -9 -22 0 -5 8 -3 10 7 4 8 -5 11 -4 7 0 -7 8 -39
15 -78 17 -8 1 -21 8 -29 15 -7 8 -20 12 -27 9 -8 -3 -14 -1 -14 5 0 6 -7 9
-15 5 -8 -3 -22 2 -31 11 -13 14 -17 14 -25 2 -7 -11 -9 -12 -9 0 0 8 -7 11
-20 8 -12 -3 -24 1 -29 11 -5 9 -13 14 -17 10 -4 -5 -13 -3 -21 3 -7 6 -13 8
-13 3 0 -5 -5 -2 -10 6 -9 13 -10 13 -10 0 0 -12 -2 -13 -9 -1 -5 7 -25 14
-45 15 -20 0 -36 5 -36 9 0 5 -4 6 -9 2 -5 -3 -12 -1 -15 4 -4 5 -17 8 -31 5
-16 -3 -27 2 -34 13 -10 17 -10 16 -11 -2 -1 -19 -1 -19 -11 -2 -6 9 -14 15
-20 12 -5 -4 -9 -1 -9 6 0 8 -4 8 -15 -1 -11 -9 -15 -9 -15 -1 0 7 -4 10 -9 6
-5 -3 -13 0 -17 6 -5 9 -11 6 -22 -7 -12 -16 -14 -16 -9 -2 3 10 2 20 -3 23
-6 4 -10 0 -10 -7 0 -9 -3 -9 -10 2 -6 10 -10 11 -10 3 0 -7 -5 -13 -11 -13
-5 0 -7 5 -4 10 9 14 -8 12 -24 -2 -11 -11 -12 -10 -6 1 6 11 4 13 -8 8 -9 -3
-19 -1 -23 5 -4 7 -9 6 -15 -3 -6 -10 -9 -10 -9 -2 0 7 -7 10 -17 6 -9 -4 -14
-2 -10 3 3 6 -4 11 -16 11 -15 2 -18 0 -9 -6 11 -7 10 -10 -3 -14 -9 -4 -13
-3 -10 3 3 5 -4 14 -16 21 -19 10 -21 9 -15 -6 5 -15 4 -16 -9 -5 -8 7 -24 10
-35 7 -11 -3 -27 1 -35 10 -8 8 -15 10 -15 5 0 -5 -7 -9 -15 -9 -10 0 -12 4
-5 12 6 7 3 11 -11 11 -10 0 -19 -4 -19 -9 0 -4 -6 -5 -12 0 -7 4 -20 8 -28 8
-8 0 -20 4 -27 8 -6 4 -14 3 -18 -3 -4 -6 -11 -8 -16 -4 -5 3 -6 10 -3 16 4 5
-5 3 -18 -6 -22 -14 -27 -14 -37 -2 -7 8 -21 12 -33 8 -16 -4 -19 -2 -13 8 5
9 4 11 -4 6 -6 -4 -9 -11 -6 -15 7 -12 -49 1 -57 13 -6 8 -8 8 -8 -1 0 -7 -10
-10 -26 -7 -36 7 -38 7 -49 4 -25 -6 -41 -4 -47 4 -4 6 -12 5 -21 -3 -12 -9
-16 -9 -20 1 -4 10 -8 10 -16 -2 -8 -12 -11 -12 -11 -1 0 10 -3 11 -14 2 -11
-9 -16 -9 -21 0 -6 8 -10 7 -16 -2 -7 -12 -9 -12 -9 0 0 11 -3 11 -17 0 -10
-8 -14 -9 -10 -2 5 7 1 12 -10 11 -10 0 -27 3 -38 7 l-20 8 20 -16 c17 -14 18
-15 2 -13 -9 1 -22 7 -28 13 -6 6 -26 8 -45 6 -19 -3 -41 0 -49 7 -10 8 -15 8
-20 0 -4 -7 -16 -10 -26 -7 -10 3 -20 0 -22 -6 -2 -6 -11 -8 -21 -4 -9 4 -14
12 -10 18 4 8 0 8 -15 0 -12 -7 -26 -9 -31 -6 -6 3 -10 1 -10 -4 0 -6 -4 -11
-10 -11 -5 0 -7 8 -4 18 4 10 3 13 -3 6 -4 -6 -18 -10 -30 -9 -15 1 -19 -3
-15 -14 5 -13 3 -14 -9 -4 -12 10 -18 10 -27 1 -7 -7 -12 -8 -12 -2 0 5 5 15
12 22 7 7 9 12 6 12 -3 0 -11 -7 -18 -15z m270 -13 c0 -4 -9 -8 -19 -8 -15 0
-17 3 -9 13 10 12 28 9 28 -5z m-115 -2 c-3 -5 -12 -10 -18 -10 -7 0 -6 4 3
10 19 12 23 12 15 0z m195 4 c0 -8 -19 -13 -24 -6 -3 5 1 9 9 9 8 0 15 -2 15
-3z m2140 -454 c0 -5 -5 -10 -11 -10 -5 0 -7 5 -4 10 3 6 8 10 11 10 2 0 4 -4
4 -10z m-5105 -340 c3 -5 -1 -10 -10 -10 -9 0 -13 5 -10 10 3 6 8 10 10 10 2
0 7 -4 10 -10z m8355 -3664 c0 -3 -4 -8 -10 -11 -5 -3 -10 -1 -10 4 0 6 5 11
10 11 6 0 10 -2 10 -4z m-6140 -6662 c0 -8 -19 -13 -24 -6 -3 5 1 9 9 9 8 0
15 -2 15 -3z"/>
<path d="M3716 10893 c-6 -14 -5 -15 5 -6 7 7 10 15 7 18 -3 3 -9 -2 -12 -12z"/>
<path d="M8070 10629 c0 -5 5 -7 10 -4 6 3 10 8 10 11 0 2 -4 4 -10 4 -5 0
-10 -5 -10 -11z"/>
<path d="M200 7099 c0 -5 5 -7 10 -4 6 3 10 8 10 11 0 2 -4 4 -10 4 -5 0 -10
-5 -10 -11z"/>
<path d="M11193 5495 c0 -8 4 -12 9 -9 5 3 6 10 3 15 -9 13 -12 11 -12 -6z"/>
<path d="M27 5063 c-10 -9 -9 -23 1 -23 5 0 9 7 9 15 0 17 -1 18 -10 8z"/>
<path d="M10030 2210 c-6 -11 -8 -20 -6 -20 3 0 10 9 16 20 6 11 8 20 6 20 -3
0 -10 -9 -16 -20z"/>
<path d="M9645 1760 c-3 -6 1 -7 9 -4 18 7 21 14 7 14 -6 0 -13 -4 -16 -10z"/>
<path d="M3066 612 c-3 -5 1 -9 9 -9 8 0 12 4 9 9 -3 4 -7 8 -9 8 -2 0 -6 -4
-9 -8z"/>
<path d="M7535 370 c-3 -5 -1 -10 4 -10 6 0 11 5 11 10 0 6 -2 10 -4 10 -3 0
-8 -4 -11 -10z"/>
</g>
</svg>
