<svg xmlns="http://www.w3.org/2000/svg" version="1.1" xmlns:xlink="http://www.w3.org/1999/xlink" xmlns:svgjs="http://svgjs.com/svgjs" width="1366" height="1366"><svg xmlns="http://www.w3.org/2000/svg" xmlns:xlink="http://www.w3.org/1999/xlink" width="1366" zoomAndPan="magnify" viewBox="0 0 1024.5 1024.500009" height="1366" preserveAspectRatio="xMidYMid meet" version="1.0"><defs><clipPath id="SvgjsClipPath1000"><path d="M 1 54 L 1024 54 L 1024 973.359375 L 1 973.359375 Z M 1 54 " clip-rule="nonzero"></path></clipPath></defs><g clip-path="url(#e0672e52fd)"><path fill="#000000" d="M 583.308594 518.488281 C 595.734375 527.96875 608.164062 537.238281 625.226562 532.390625 C 636.601562 529.230469 638.710938 526.285156 638.921875 514.488281 C 638.921875 511.117188 638.921875 507.957031 638.921875 504.585938 C 668.832031 513.222656 675.785156 510.90625 679.578125 491.316406 C 701.90625 499.742188 723.605469 482.890625 720.445312 458.457031 C 729.925781 464.355469 738.980469 467.726562 748.671875 460.351562 C 758.574219 452.769531 755.625 441.816406 756.675781 433.179688 C 766.367188 432.546875 775.847656 433.390625 784.484375 431.074219 C 793.964844 428.335938 799.230469 420.332031 799.019531 406.851562 C 806.601562 417.59375 813.34375 425.808594 818.609375 434.867188 C 840.730469 473.414062 862.425781 512.382812 883.914062 551.347656 C 888.125 558.722656 893.816406 567.148438 884.757812 575.152344 C 880.542969 578.945312 866.429688 573.257812 860.109375 565.25 C 854.84375 558.511719 850.417969 551.347656 845.574219 544.398438 C 843.679688 541.660156 841.570312 539.34375 838.410156 537.449219 C 840.941406 541.660156 843.46875 545.871094 845.996094 550.296875 C 847.679688 553.457031 850.207031 556.828125 850.417969 560.195312 C 851.050781 567.359375 852.945312 576.207031 849.789062 581.472656 C 845.363281 588.632812 836.304688 583.578125 830.828125 580.628906 C 814.609375 571.992188 799.019531 561.882812 783.21875 552.402344 C 775.003906 547.347656 766.789062 542.292969 758.152344 537.65625 C 751.621094 534.289062 747.828125 529.652344 747.617188 524.386719 C 756.464844 525.230469 765.523438 527.125 774.371094 526.703125 C 785.117188 526.074219 789.328125 517.648438 790.804688 507.113281 C 794.59375 508.378906 797.964844 509.433594 801.546875 510.273438 C 813.132812 513.433594 821.347656 508.800781 824.085938 497.214844 C 828.089844 480.785156 825.140625 465.617188 814.609375 451.925781 C 816.292969 458.035156 818.398438 464.355469 819.453125 470.464844 C 820.296875 475.097656 820.925781 480.363281 819.664062 484.996094 C 818.1875 490.683594 816.292969 498.691406 812.078125 501.007812 C 805.339844 504.585938 797.125 501.847656 791.4375 495.953125 C 786.589844 490.894531 782.378906 485.417969 777.742188 480.152344 C 776.058594 478.046875 774.160156 476.363281 770.582031 475.308594 C 771.84375 477.625 773.109375 480.152344 774.160156 482.46875 C 775.847656 486.050781 777.53125 489.632812 779.007812 493.214844 C 783.851562 505.429688 782.589844 514.699219 775.636719 518.699219 C 768.261719 522.703125 751.832031 518.699219 745.722656 510.90625 C 741.089844 505.007812 736.875 498.691406 730.765625 493.214844 C 732.875 502.480469 735.402344 511.75 736.875 521.226562 C 737.929688 527.757812 738.5625 534.5 738.140625 541.027344 C 737.71875 548.191406 732.664062 551.558594 726.132812 549.453125 C 720.023438 547.347656 713.703125 544.1875 709.488281 539.554688 C 703.59375 532.8125 699.589844 524.386719 694.746094 516.804688 C 692.636719 513.644531 690.53125 510.484375 686.949219 508.378906 C 689.476562 518.488281 692.214844 528.601562 694.535156 538.921875 C 695.585938 544.1875 696.21875 549.664062 696.429688 555.140625 C 696.851562 566.515625 691.796875 574.308594 683.367188 576.207031 C 673.046875 578.523438 661.039062 573.257812 656.40625 563.988281 C 653.246094 557.457031 650.507812 550.71875 647.347656 544.1875 C 646.292969 542.292969 644.609375 540.605469 642.710938 538.289062 C 644.398438 549.875 647.347656 560.195312 647.347656 570.308594 C 647.347656 593.265625 633.652344 600.429688 613.851562 589.054688 C 612.589844 588.421875 611.324219 587.578125 609.851562 586.738281 C 609.851562 594.953125 616.167969 599.585938 629.019531 601.269531 C 642.921875 602.957031 653.035156 593.898438 657.457031 575.996094 C 675.996094 590.738281 702.960938 585.472656 706.121094 551.558594 C 713.914062 553.878906 721.707031 557.246094 729.714844 558.511719 C 740.035156 559.984375 745.722656 553.246094 749.304688 542.503906 C 756.046875 546.292969 762.363281 549.875 768.472656 553.246094 C 788.695312 564.199219 808.921875 574.941406 829.144531 585.894531 C 831.25 586.949219 833.566406 588 835.882812 588.632812 C 850.207031 593.054688 856.105469 590.109375 861.164062 575.152344 C 874.011719 588.421875 890.234375 598.113281 897.605469 616.226562 C 898.871094 619.597656 900.554688 622.96875 901.398438 626.335938 C 904.136719 638.34375 898.871094 645.085938 886.441406 645.503906 C 881.386719 645.714844 875.699219 645.925781 871.0625 644.242188 C 832.722656 629.285156 794.175781 614.542969 756.464844 598.113281 C 742.773438 592.003906 730.765625 581.683594 715.808594 571.78125 C 719.8125 578.523438 723.394531 583.15625 725.5 588.210938 C 729.082031 596.636719 733.082031 605.273438 734.980469 614.121094 C 737.71875 626.96875 722.128906 642.765625 707.804688 632.867188 C 700.011719 627.390625 692.214844 621.492188 685.265625 614.753906 C 678.734375 608.433594 673.257812 600.640625 667.148438 593.6875 C 666.09375 594.742188 664.832031 595.792969 663.777344 597.058594 C 667.992188 602.324219 672.625 607.167969 676.628906 612.644531 C 682.527344 620.441406 688.214844 628.234375 693.480469 636.238281 C 697.902344 642.976562 698.746094 650.5625 693.480469 657.300781 C 689.265625 662.988281 679.15625 663.410156 670.730469 660.25 C 650.507812 652.878906 638.289062 636.660156 625.859375 620.441406 C 621.226562 614.542969 616.800781 608.433594 611.746094 602.746094 C 621.648438 626.546875 639.339844 644.664062 655.773438 663.410156 C 650.929688 674.574219 643.765625 678.367188 630.074219 673.730469 C 622.066406 670.992188 614.273438 665.9375 608.585938 659.617188 C 597 646.980469 586.886719 633.078125 574.671875 617.703125 C 576.988281 623.808594 578.039062 628.65625 580.570312 632.234375 C 588.996094 644.664062 597.632812 657.300781 606.902344 669.097656 C 617.011719 682.15625 631.335938 688.6875 647.558594 687 C 663.355469 685.316406 676.417969 689.949219 689.6875 697.324219 C 707.382812 707.222656 707.382812 707.644531 693.480469 722.8125 C 681.683594 735.660156 667.148438 746.191406 660.617188 764.097656 C 658.722656 769.152344 647.769531 771.679688 640.605469 773.996094 C 635.550781 775.679688 630.285156 774.839844 627.753906 781.789062 C 626.914062 784.105469 620.171875 784.949219 616.167969 784.949219 C 601.003906 785.160156 585.835938 785.160156 570.667969 784.316406 C 560.136719 783.6875 550.234375 784.316406 541.175781 790.425781 C 531.695312 796.957031 521.796875 795.269531 511.683594 791.269531 C 484.089844 780.316406 456.492188 769.785156 429.316406 759.25 C 430.582031 750.195312 431.84375 741.347656 433.53125 731.238281 C 439.429688 731.445312 447.222656 732.289062 454.808594 732.289062 C 480.507812 731.867188 488.933594 721.335938 483.457031 695.636719 C 491.460938 698.164062 499.042969 701.324219 507.050781 702.800781 C 527.0625 706.800781 536.753906 697.113281 532.960938 676.890625 C 529.800781 659.199219 517.582031 648.453125 502.414062 640.238281 C 513.367188 651.191406 515.6875 665.515625 518.847656 679.628906 C 521.796875 692.269531 516.316406 697.113281 503.257812 693.742188 C 492.726562 691.003906 482.402344 687.632812 472.292969 684.683594 C 472.292969 692.058594 472.292969 698.375 472.292969 704.90625 C 472.292969 713.542969 467.867188 718.175781 459.441406 719.652344 C 446.167969 721.757812 421.734375 718.175781 406.988281 710.804688 C 412.675781 703.433594 413.9375 695.636719 407.410156 687.003906 C 437.320312 697.324219 444.484375 694.585938 452.699219 670.152344 C 461.96875 671.625 471.027344 673.730469 480.085938 674.152344 C 489.777344 674.574219 493.355469 670.363281 492.515625 660.671875 C 491.460938 648.246094 487.457031 637.289062 476.082031 630.972656 C 475.03125 631.183594 473.976562 631.605469 472.710938 631.8125 C 473.34375 635.816406 473.554688 639.820312 474.609375 643.609375 C 476.292969 649.085938 479.242188 654.140625 480.929688 659.410156 C 482.191406 663.410156 480.507812 666.570312 475.449219 666.359375 C 472.710938 666.359375 469.972656 666.570312 467.234375 666.78125 C 454.808594 666.992188 452.066406 664.675781 448.488281 650.351562 C 452.277344 650.984375 456.070312 651.613281 459.652344 652.246094 C 459.863281 651.402344 460.074219 650.5625 460.285156 649.71875 C 453.332031 644.03125 445.328125 641.714844 435.636719 643.820312 C 436.902344 649.71875 438.164062 655.40625 439.007812 660.882812 C 441.113281 675.207031 434.375 683.210938 420.046875 682.789062 C 411.621094 682.578125 403.40625 681.105469 393.714844 680.261719 C 396.035156 693.53125 398.351562 708.066406 378.96875 714.804688 C 388.660156 716.703125 395.824219 718.175781 402.984375 719.863281 C 411.621094 721.757812 424.261719 740.925781 422.367188 749.351562 C 420.890625 755.882812 416.046875 757.144531 410.359375 755.039062 C 398.140625 750.40625 385.5 746.613281 374.125 740.503906 C 352.007812 728.707031 330.730469 715.4375 309.242188 702.589844 C 306.925781 701.324219 305.242188 699.21875 303.34375 697.746094 C 310.296875 697.324219 317.039062 697.746094 323.355469 696.480469 C 331.574219 695.007812 333.679688 687.632812 335.152344 680.894531 C 338.734375 664.886719 334.734375 657.722656 321.039062 653.722656 C 321.671875 659.617188 322.9375 665.515625 322.9375 671.414062 C 322.515625 687.84375 307.347656 695.636719 293.445312 686.792969 C 291.335938 685.527344 289.441406 684.054688 287.546875 682.578125 C 279.539062 675.207031 271.746094 667.832031 263.53125 660.25 C 277.855469 662.777344 289.230469 659.410156 293.023438 651.402344 C 297.65625 641.503906 293.65625 630.761719 280.804688 620.648438 C 281.648438 628.023438 282.488281 634.34375 282.910156 640.660156 C 283.753906 653.722656 274.484375 659.828125 263.320312 652.667969 C 252.789062 645.925781 243.519531 637.082031 232.144531 627.8125 C 239.9375 627.8125 245.414062 629.074219 249.628906 627.390625 C 254.050781 625.707031 258.476562 621.703125 260.582031 617.492188 C 264.792969 609.277344 259.105469 597.058594 247.941406 589.476562 C 249.628906 594.953125 251.734375 599.164062 251.945312 603.167969 C 252.15625 608.644531 253.207031 616.859375 250.046875 619.386719 C 244.152344 624.230469 236.144531 622.546875 230.457031 616.4375 C 221.820312 606.957031 213.394531 597.058594 204.335938 586.949219 C 210.023438 586.949219 214.871094 586.949219 219.503906 586.949219 C 227.929688 586.738281 235.722656 583.367188 236.355469 574.730469 C 236.777344 567.570312 232.773438 560.195312 230.667969 552.824219 C 230.457031 552.191406 227.296875 551.558594 226.875 551.980469 C 225.824219 553.035156 224.980469 555.140625 225.191406 556.617188 C 225.824219 560.828125 227.296875 564.832031 228.140625 569.042969 C 229.40625 575.785156 226.246094 579.785156 219.503906 580.207031 C 211.078125 580.839844 202.652344 579.574219 197.59375 571.992188 C 172.738281 535.761719 158.203125 495.109375 149.988281 452.136719 C 149.777344 451.296875 149.988281 450.453125 149.988281 450.664062 C 157.570312 447.714844 164.734375 445.1875 172.105469 442.449219 C 175.265625 449.1875 177.371094 458.667969 189.167969 457.824219 C 196.121094 457.402344 201.386719 454.875 204.546875 448.558594 C 210.023438 437.605469 211.078125 426.441406 205.390625 415.488281 C 204.546875 415.277344 203.492188 415.277344 202.652344 415.066406 C 202.230469 417.804688 201.597656 420.542969 201.386719 423.070312 C 200.964844 426.019531 201.175781 429.179688 200.332031 432.128906 C 198.4375 439.078125 195.277344 446.242188 186.851562 445.609375 C 178.847656 444.976562 177.371094 437.605469 176.109375 430.652344 C 175.476562 426.019531 174.632812 421.59375 172.949219 416.960938 C 172.949219 425.386719 170.84375 431.917969 162.414062 435.496094 C 153.988281 439.078125 146.40625 436.339844 144.929688 427.492188 C 142.402344 412.960938 140.085938 398.214844 139.664062 383.46875 C 138.824219 359.878906 140.507812 336.074219 139.664062 312.484375 C 139.03125 295.421875 133.132812 280.046875 120.285156 267.828125 C 115.019531 262.773438 111.4375 255.609375 106.59375 249.082031 C 116.28125 244.238281 123.867188 240.65625 131.449219 236.863281 C 141.769531 231.808594 147.039062 222.75 150.410156 212.429688 C 155.886719 195.367188 151.039062 187.363281 130.605469 182.941406 C 132.925781 173.882812 134.609375 164.402344 137.769531 155.558594 C 140.085938 149.027344 138.613281 146.078125 132.503906 145.445312 C 126.183594 144.605469 119.863281 144.8125 113.542969 143.972656 C 105.117188 143.128906 92.898438 142.917969 90.582031 133.019531 C 88.898438 126.066406 93.53125 115.746094 98.375 109.214844 C 117.757812 83.097656 144.929688 68.5625 176.320312 61.398438 C 222.664062 50.867188 268.796875 53.394531 314.71875 63.929688 C 377.917969 78.25 427 113.21875 465.550781 164.402344 C 472.921875 174.09375 480.507812 183.570312 487.457031 193.261719 C 493.777344 201.898438 501.363281 207.796875 511.894531 210.953125 C 531.484375 216.851562 550.867188 224.015625 570.457031 230.542969 C 579.304688 233.492188 580.570312 236.652344 576.988281 245.289062 C 570.246094 261.085938 548.757812 267.195312 534.855469 257.085938 C 531.90625 254.980469 529.378906 252.449219 524.324219 248.238281 C 528.957031 260.667969 532.539062 270.777344 536.332031 280.675781 C 539.910156 289.945312 542.441406 299.632812 537.59375 308.691406 C 534.855469 313.957031 530.011719 319.011719 524.746094 321.75 C 516.320312 326.386719 511.050781 323.4375 506.839844 314.589844 C 506.207031 313.117188 504.730469 312.0625 501.785156 308.691406 C 501.785156 319.011719 502.203125 326.808594 501.574219 334.390625 C 500.941406 343.660156 493.777344 351.453125 486.195312 352.292969 C 477.136719 353.558594 468.289062 347.449219 464.917969 337.761719 C 463.445312 333.335938 461.335938 329.125 457.546875 325.332031 C 457.964844 329.964844 459.019531 334.601562 458.808594 339.234375 C 458.386719 347.449219 458.175781 356.296875 455.648438 363.878906 C 452.277344 374.199219 438.585938 375.675781 431.425781 367.039062 C 428.265625 363.246094 425.734375 358.824219 421.945312 353.347656 C 421.945312 372.9375 427.84375 380.941406 440.902344 381.363281 C 458.386719 381.785156 465.128906 373.78125 466.183594 351.875 C 489.144531 369.566406 509.367188 354.191406 509.15625 327.226562 C 517.371094 333.125 525.585938 331.019531 533.171875 326.597656 C 541.386719 321.960938 545.808594 314.378906 546.652344 305.320312 C 547.917969 291 544.96875 277.097656 537.171875 263.195312 C 548.757812 268.882812 559.503906 269.933594 568.984375 262.984375 C 577.621094 256.664062 584.78125 248.660156 594.261719 239.601562 C 604.792969 238.96875 609.640625 253.082031 610.058594 271.621094 C 610.480469 285.3125 602.265625 292.050781 584.359375 294.367188 C 589.207031 299.003906 597.632812 298.582031 606.691406 293.316406 C 616.589844 287.628906 620.171875 270.988281 614.695312 249.292969 C 630.703125 257.929688 645.03125 266.351562 659.773438 273.515625 C 680.839844 283.625 686.949219 302.371094 689.898438 323.015625 C 693.058594 344.710938 677.679688 357.351562 657.246094 350.609375 C 654.296875 348.292969 650.929688 345.976562 648.398438 343.238281 C 644.398438 338.8125 640.605469 333.96875 636.8125 329.335938 C 635.972656 329.964844 635.128906 330.808594 634.496094 331.441406 C 635.972656 333.96875 638.289062 336.285156 639.132812 339.023438 C 641.660156 348.503906 645.03125 357.980469 645.660156 367.460938 C 646.292969 375.464844 639.972656 379.046875 632.179688 376.941406 C 626.703125 375.464844 621.4375 373.359375 615.328125 371.042969 C 623.121094 380.941406 635.972656 384.734375 645.660156 380.730469 C 652.824219 377.78125 655.5625 370.410156 654.929688 358.191406 C 654.71875 355.664062 656.617188 352.925781 657.457031 350.398438 C 659.984375 359.246094 667.570312 359.035156 674.101562 358.613281 C 686.738281 357.769531 695.796875 348.292969 696.21875 333.96875 C 696.640625 322.59375 694.324219 311.007812 693.058594 299.632812 C 709.699219 308.269531 724.867188 320.488281 735.820312 337.761719 C 737.71875 349.976562 739.824219 361.984375 741.511719 374.203125 C 742.5625 381.574219 739.613281 387.683594 731.820312 389.367188 C 724.027344 391.050781 716.441406 391.261719 711.386719 382.417969 C 706.960938 374.410156 701.273438 367.039062 696.007812 359.457031 C 695.375 359.878906 694.746094 360.300781 694.113281 360.71875 C 695.375 363.246094 697.0625 365.566406 698.113281 368.09375 C 701.273438 377.148438 705.277344 386.207031 706.539062 395.476562 C 707.171875 400.953125 704.855469 410.222656 701.273438 412.117188 C 696.007812 414.433594 688.214844 412.117188 681.683594 410.429688 C 677.050781 409.167969 673.046875 405.796875 668.832031 403.269531 C 678.101562 414.644531 689.265625 423.070312 704.011719 418.644531 C 714.96875 415.277344 716.863281 404.535156 716.863281 393.789062 C 720.234375 393.789062 723.394531 393.789062 726.34375 393.789062 C 739.824219 394.210938 745.300781 389.789062 746.988281 376.519531 C 747.617188 372.09375 747.410156 367.460938 746.566406 363.039062 C 745.089844 355.03125 742.5625 347.238281 740.667969 339.445312 C 756.046875 355.664062 773.320312 370.410156 782.589844 391.472656 C 784.0625 394.84375 785.535156 398.003906 786.800781 401.585938 C 790.804688 414.011719 788.484375 420.332031 779.007812 425.175781 C 769.105469 430.230469 758.363281 427.914062 751.410156 418.855469 C 747.617188 414.011719 744.25 409.167969 739.613281 403.058594 C 743.40625 414.855469 747.617188 424.542969 749.09375 434.65625 C 750.988281 446.660156 746.777344 453.191406 739.402344 455.507812 C 730.976562 458.246094 719.8125 453.613281 714.335938 444.976562 C 711.175781 439.921875 708.226562 434.867188 704.433594 430.441406 C 706.960938 441.816406 709.910156 452.980469 712.019531 464.566406 C 713.492188 472.570312 711.175781 480.785156 703.382812 483.945312 C 697.273438 486.261719 689.476562 485.839844 682.738281 484.578125 C 679.578125 483.945312 677.050781 478.890625 674.941406 475.519531 C 670.519531 467.726562 666.515625 459.722656 662.304688 451.925781 C 661.671875 452.347656 660.828125 452.558594 660.195312 452.980469 C 663.144531 462.25 667.148438 471.097656 668.832031 480.574219 C 670.097656 486.894531 670.519531 497.425781 667.148438 499.53125 C 661.460938 503.113281 652.402344 502.691406 645.03125 501.429688 C 640.816406 500.796875 636.601562 496.160156 633.863281 492.160156 C 627.542969 483.101562 622.277344 473.203125 616.589844 463.722656 C 615.75 464.144531 614.90625 464.566406 614.0625 464.988281 C 616.589844 471.097656 619.75 476.78125 621.855469 483.101562 C 625.015625 492.792969 627.964844 502.691406 630.074219 512.59375 C 631.757812 520.386719 628.175781 524.386719 619.539062 525.863281 C 606.058594 528.179688 595.3125 522.703125 584.148438 517.015625 C 576.777344 505.851562 569.402344 494.6875 561.1875 482.46875 C 566.035156 498.269531 571.511719 511.75 573.828125 525.863281 C 575.933594 537.867188 566.035156 545.453125 553.816406 543.765625 C 539.703125 541.871094 528.324219 535.128906 518.636719 524.808594 C 515.476562 521.226562 511.472656 518.488281 507.679688 515.332031 C 512.738281 528.390625 517.160156 540.1875 514.632812 553.667969 C 513.160156 561.25 508.523438 565.671875 501.363281 566.515625 C 491.25 567.359375 482.191406 565.253906 476.082031 555.773438 C 472.292969 550.085938 467.867188 544.609375 463.65625 539.132812 C 465.128906 544.820312 468.078125 549.242188 470.605469 553.878906 C 473.976562 559.984375 472.710938 566.515625 467.867188 570.519531 C 464.496094 573.257812 458.386719 575.152344 454.175781 574.308594 C 433.953125 569.886719 425.734375 553.667969 417.308594 536.183594 C 455.4375 540.394531 478.820312 521.648438 474.398438 499.320312 C 487.667969 508.800781 501.152344 511.539062 515.6875 504.585938 C 531.484375 497.003906 532.117188 482.257812 533.59375 467.726562 C 564.136719 485.839844 591.523438 471.726562 584.148438 431.074219 C 592.15625 438.445312 598.894531 444.132812 605.003906 450.664062 C 612.378906 458.457031 621.015625 459.511719 630.703125 456.984375 C 639.972656 454.664062 641.238281 447.503906 640.816406 442.238281 C 649.03125 437.816406 657.878906 435.917969 662.304688 430.441406 C 670.730469 419.910156 661.039062 395.054688 646.714844 388.945312 C 649.03125 393.789062 651.558594 397.582031 652.824219 401.796875 C 654.929688 408.957031 657.457031 416.328125 657.457031 423.703125 C 657.457031 427.070312 652.402344 431.285156 648.609375 433.179688 C 643.765625 435.917969 641.238281 431.496094 639.339844 427.492188 C 637.023438 422.648438 634.496094 417.804688 631.757812 413.167969 C 629.441406 409.378906 626.492188 405.796875 623.753906 402.003906 C 626.492188 413.378906 630.703125 423.703125 633.023438 434.445312 C 634.074219 439.289062 633.023438 447.082031 629.652344 449.820312 C 626.492188 452.347656 617.855469 452.347656 614.0625 449.820312 C 599.738281 440.34375 583.097656 432.546875 576.566406 414.644531 C 575.722656 412.539062 573.617188 410.851562 570.667969 407.0625 C 572.5625 421.382812 574.039062 432.96875 575.511719 444.554688 C 576.988281 457.402344 571.300781 467.9375 562.03125 470.253906 C 550.445312 472.992188 535.277344 466.039062 530.644531 455.929688 C 527.484375 449.609375 523.691406 443.5 520.320312 437.183594 C 519.6875 437.605469 518.847656 438.023438 518.214844 438.445312 C 518.636719 440.132812 519.058594 441.816406 519.476562 443.5 C 523.269531 456.984375 526.007812 470.886719 521.796875 484.578125 C 519.898438 490.683594 515.6875 497.636719 510.421875 500.796875 C 500.308594 506.90625 476.714844 498.691406 471.027344 487.945312 C 464.496094 475.941406 459.019531 463.300781 453.121094 451.085938 C 473.976562 449.398438 484.71875 438.023438 483.878906 415.488281 C 497.570312 434.023438 518.003906 434.234375 529.589844 416.328125 C 536.332031 405.796875 540.753906 393.789062 545.601562 383.679688 C 552.550781 390 560.554688 398.003906 569.191406 404.953125 C 578.460938 412.539062 592.785156 412.960938 600.582031 407.0625 C 618.488281 393.371094 612.167969 359.457031 599.527344 351.875 C 601.003906 359.667969 603.109375 367.671875 603.53125 375.675781 C 604.164062 385.367188 602.898438 394.84375 592.996094 399.898438 C 582.886719 404.953125 573.828125 401.796875 565.191406 395.6875 C 550.65625 385.367188 542.652344 372.304688 542.652344 353.980469 C 542.652344 347.449219 539.28125 340.921875 537.59375 334.390625 C 536.753906 334.601562 535.699219 334.8125 534.855469 335.023438 C 537.382812 355.664062 541.597656 376.308594 530.222656 395.898438 C 524.535156 387.894531 518.847656 379.886719 513.371094 371.882812 C 515.6875 381.785156 520.53125 390.210938 523.058594 399.476562 C 524.324219 404.324219 523.269531 411.0625 520.53125 415.066406 C 516.949219 420.753906 510.210938 422.226562 503.46875 419.699219 C 494.621094 416.328125 486.195312 412.539062 482.191406 402.847656 C 480.507812 398.847656 477.558594 395.476562 475.242188 391.894531 C 473.765625 395.265625 474.398438 398.003906 474.1875 400.53125 C 473.976562 408.957031 474.398438 417.382812 472.710938 425.597656 C 470.605469 435.707031 461.335938 442.027344 452.277344 442.027344 C 443.851562 441.816406 436.902344 434.867188 433.953125 424.542969 C 432.265625 418.644531 430.371094 412.75 428.476562 407.0625 C 427.632812 407.273438 427 407.484375 426.15625 407.691406 C 426.367188 410.222656 426.789062 412.960938 427 415.488281 C 427.210938 418.226562 427.84375 420.964844 427.632812 423.703125 C 427.421875 431.496094 420.890625 442.871094 415.625 442.027344 C 410.148438 441.183594 404.671875 436.761719 400.246094 432.757812 C 396.457031 429.179688 394.136719 423.914062 391.398438 419.488281 C 391.820312 427.28125 394.136719 434.234375 396.035156 441.394531 C 399.195312 452.769531 395.613281 465.410156 388.027344 470.042969 C 379.390625 475.308594 371.597656 473.414062 360.855469 463.511719 C 360.644531 463.300781 360.011719 463.511719 359.378906 463.511719 C 365.488281 477.203125 373.492188 483.734375 384.660156 482.257812 C 403.617188 479.941406 406.988281 465.621094 406.988281 450.664062 C 413.730469 450.242188 419.839844 451.296875 424.683594 449.1875 C 429.105469 447.292969 432.054688 442.027344 435.636719 438.234375 C 438.585938 443.082031 442.167969 448.558594 445.328125 454.457031 C 452.910156 469.410156 459.230469 484.996094 458.808594 502.058594 C 458.386719 520.808594 445.328125 530.285156 427 527.125 C 409.9375 524.175781 397.929688 514.488281 388.449219 500.796875 C 386.554688 498.058594 384.238281 495.953125 382.128906 493.421875 C 385.921875 507.324219 394.136719 517.859375 404.039062 527.335938 C 409.304688 532.390625 413.730469 538.5 418.152344 544.609375 C 425.527344 554.507812 431.632812 565.460938 439.640625 574.519531 C 446.171875 581.683594 455.859375 584.210938 465.550781 582.101562 C 474.1875 580.417969 479.242188 574.519531 480.085938 565.042969 C 491.25 572.414062 501.785156 577.890625 513.578125 569.675781 C 524.957031 561.671875 525.375 549.664062 523.269531 535.339844 C 528.117188 538.710938 531.0625 541.660156 534.433594 542.925781 C 543.28125 546.292969 552.128906 550.929688 561.398438 551.769531 C 575.300781 553.035156 583.519531 543.34375 583.308594 529.441406 C 582.253906 524.808594 582.886719 521.648438 583.308594 518.488281 Z M 318.511719 400.953125 C 318.511719 395.054688 318.511719 389.367188 318.511719 383.46875 C 317.667969 383.46875 316.828125 383.257812 315.773438 383.257812 C 314.71875 387.050781 313.667969 390.839844 312.613281 394.632812 C 306.925781 412.539062 295.972656 416.960938 279.75 407.902344 C 277.433594 406.640625 274.695312 405.585938 271.113281 403.902344 C 273.851562 416.960938 284.175781 419.277344 294.707031 424.964844 C 289.863281 431.496094 286.492188 439.289062 280.59375 442.871094 C 268.585938 449.820312 261.636719 436.972656 252.15625 431.917969 C 257.84375 449.1875 273.851562 459.722656 287.335938 455.507812 C 298.078125 452.347656 302.921875 438.65625 299.554688 425.386719 C 306.503906 416.328125 311.980469 408.957031 317.667969 401.585938 C 320.410156 408.113281 322.304688 415.488281 326.304688 421.175781 C 337.050781 436.761719 358.957031 434.445312 365.277344 416.75 C 369.703125 404.113281 370.964844 390.210938 373.074219 378.835938 C 383.816406 392.527344 407.621094 392.738281 414.359375 375.464844 C 419.207031 363.457031 419.839844 349.554688 412.464844 336.917969 C 412.253906 336.707031 411.410156 336.917969 411.832031 336.917969 C 410.78125 347.238281 410.148438 357.558594 408.460938 367.460938 C 407.410156 374.199219 402.773438 379.046875 395.191406 378.625 C 379.601562 377.992188 372.019531 366.40625 364.015625 355.03125 C 357.90625 346.398438 360.433594 339.65625 364.855469 331.863281 C 367.382812 327.4375 368.4375 322.171875 370.332031 317.117188 C 379.179688 331.441406 397.929688 335.441406 403.40625 317.328125 C 407.199219 320.910156 411.199219 327.4375 416.890625 329.335938 C 420.046875 330.386719 427.210938 325.542969 430.160156 321.542969 C 433.320312 316.90625 433.953125 310.378906 435.425781 304.902344 C 454.597656 318.171875 472.710938 313.535156 478.820312 293.105469 C 488.511719 301.109375 495.253906 300.898438 502.625 292.261719 C 512.316406 281.308594 511.050781 256.664062 499.464844 244.65625 C 499.886719 247.816406 500.308594 250.132812 500.519531 252.449219 C 501.152344 261.929688 502.625 271.621094 501.992188 281.097656 C 501.574219 287.839844 495.253906 291.417969 488.722656 291.207031 C 483.035156 291 480.085938 286.996094 479.453125 280.886719 C 478.820312 275.621094 476.925781 270.355469 475.03125 265.300781 C 471.449219 255.1875 467.445312 245.289062 462.8125 233.492188 C 465.972656 235.390625 466.8125 236.441406 467.867188 236.652344 C 472.503906 237.917969 477.558594 240.867188 481.558594 239.8125 C 487.878906 237.917969 489.988281 231.386719 488.933594 224.855469 C 488.511719 221.277344 487.667969 217.695312 485.984375 214.535156 C 462.179688 163.5625 425.527344 127.542969 368.226562 118.695312 C 345.898438 115.324219 323.148438 115.746094 300.605469 114.480469 C 300.605469 115.535156 300.605469 116.796875 300.394531 117.851562 C 306.503906 117.851562 312.402344 118.0625 318.511719 117.851562 C 343.371094 116.589844 367.382812 120.589844 390.765625 128.382812 C 433.53125 142.707031 461.335938 173.671875 481.140625 212.851562 C 483.035156 216.851562 484.296875 221.488281 484.296875 225.910156 C 484.296875 228.648438 482.613281 232.652344 480.296875 234.125 C 478.820312 235.179688 474.398438 234.335938 472.292969 232.863281 C 467.65625 229.492188 463.863281 225.277344 459.652344 221.277344 C 448.910156 211.585938 439.429688 199.789062 427.210938 192.628906 C 402.144531 177.253906 375.179688 164.191406 348.214844 151.554688 C 334.3125 145.023438 318.933594 141.445312 304.398438 136.597656 C 304.1875 137.441406 303.976562 138.074219 303.765625 138.914062 C 312.191406 141.863281 321.039062 144.183594 329.253906 147.761719 C 354.535156 159.136719 380.234375 170.300781 404.671875 183.359375 C 423.207031 193.261719 441.324219 204.425781 453.964844 222.539062 C 462.601562 234.757812 463.234375 247.394531 455.648438 259.824219 C 455.226562 260.246094 455.859375 261.296875 456.070312 262.140625 C 457.125 263.195312 458.175781 264.246094 459.441406 265.089844 C 461.96875 261.085938 464.707031 256.875 467.234375 252.660156 C 472.710938 264.246094 475.03125 280.675781 472.710938 289.945312 C 468.921875 306.164062 452.066406 311.851562 440.902344 300.054688 C 435.425781 294.367188 432.476562 286.152344 427.632812 278.148438 C 432.265625 277.515625 434.375 277.304688 436.480469 276.886719 C 452.910156 274.777344 452.277344 268.25 447.433594 254.980469 C 445.328125 249.292969 442.167969 244.027344 439.640625 238.757812 C 447.855469 228.226562 448.488281 221.066406 440.902344 213.691406 C 440.691406 216.851562 440.902344 219.589844 440.273438 221.910156 C 439.21875 225.699219 437.742188 229.492188 436.480469 233.070312 C 433.320312 230.964844 430.160156 228.859375 427.210938 226.542969 C 426.15625 225.910156 425.527344 224.855469 424.894531 223.804688 C 415.835938 208.214844 403.40625 196 387.816406 187.152344 C 370.121094 177.253906 351.796875 168.40625 333.679688 159.136719 C 333.257812 160.191406 332.625 161.035156 332.203125 162.085938 C 344.84375 169.039062 357.90625 175.355469 369.914062 183.152344 C 383.183594 191.785156 396.453125 200.84375 408.25 211.375 C 416.257812 218.539062 420.46875 229.914062 428.894531 236.230469 C 436.269531 241.917969 440.273438 248.238281 442.378906 256.453125 C 445.539062 268.25 444.0625 270.144531 431.003906 271.621094 C 430.582031 270.355469 430.160156 268.882812 429.738281 267.617188 C 426.15625 256.453125 424.683594 243.816406 418.152344 234.546875 C 407.199219 219.167969 393.085938 205.898438 380.023438 191.996094 C 376.863281 188.628906 372.230469 186.308594 368.226562 183.570312 C 367.59375 185.890625 368.015625 186.941406 368.859375 187.785156 C 378.128906 197.894531 387.1875 208.007812 396.664062 217.695312 C 407.199219 228.648438 409.09375 248.238281 399.195312 258.980469 C 397.085938 261.507812 391.609375 261.296875 387.609375 261.296875 C 386.976562 261.296875 385.078125 255.398438 385.921875 252.871094 C 388.660156 243.394531 393.296875 234.125 383.816406 225.699219 C 390.976562 217.90625 390.976562 217.90625 386.976562 212.007812 C 385.078125 216.011719 383.394531 219.800781 381.289062 224.015625 C 375.8125 219.589844 370.542969 215.378906 365.277344 211.164062 C 370.753906 226.332031 392.242188 236.441406 376.652344 256.664062 C 378.761719 259.613281 380.65625 262.140625 382.550781 264.878906 C 382.128906 265.300781 381.917969 265.511719 381.5 265.933594 C 380.445312 270.566406 378.761719 274.988281 378.339844 279.625 C 377.707031 285.3125 375.390625 289.523438 369.492188 288.679688 C 359.378906 287.207031 351.796875 280.886719 344.632812 273.515625 C 361.066406 264.878906 361.066406 264.878906 358.535156 226.121094 C 347.371094 218.328125 337.683594 211.796875 327.992188 205.058594 C 333.679688 212.007812 339.578125 218.328125 345.898438 224.4375 C 354.957031 233.28125 357.273438 244.445312 354.535156 256.242188 C 353.691406 259.613281 348.636719 262.140625 345.054688 264.246094 C 343.371094 265.300781 340.839844 264.878906 337.683594 265.089844 C 357.695312 291.628906 343.160156 313.117188 329.886719 334.390625 C 324.832031 342.394531 320.199219 351.453125 307.980469 353.136719 C 307.980469 337.972656 322.515625 328.28125 320.40625 313.957031 C 317.039062 319.644531 314.507812 325.753906 311.769531 331.652344 C 305.242188 345.976562 305.242188 345.976562 294.074219 339.867188 C 294.707031 345.132812 298.078125 352.292969 295.972656 356.929688 C 291.125 366.828125 283.964844 375.675781 277.011719 384.3125 C 272.800781 389.367188 267.113281 388.3125 263.109375 383.257812 C 260.160156 379.46875 257.421875 375.675781 254.472656 371.882812 C 253.839844 375.886719 253.839844 379.46875 255.527344 381.996094 C 267.113281 398.425781 272.167969 404.324219 288.386719 386.628906 C 290.074219 384.945312 291.546875 382.835938 292.601562 380.730469 C 296.183594 372.726562 299.554688 364.511719 302.921875 356.296875 C 306.925781 360.089844 311.351562 364.511719 315.984375 368.722656 L 315.773438 368.304688 C 315.140625 375.886719 320.199219 379.046875 326.304688 380.730469 C 333.046875 382.625 338.523438 380.097656 341.683594 374.199219 C 345.054688 368.09375 347.371094 361.5625 350.320312 355.242188 C 351.796875 352.082031 354.113281 349.34375 357.0625 345.132812 C 359.589844 353.347656 361.484375 359.246094 363.171875 365.355469 C 368.015625 381.996094 365.488281 397.582031 354.957031 411.695312 C 347.582031 421.59375 339.367188 422.648438 330.730469 414.222656 C 325.675781 410.429688 322.304688 405.585938 318.511719 400.953125 Z M 326.515625 230.125 C 335.574219 252.242188 330.519531 272.671875 329.046875 293.105469 C 328.625 298.371094 325.886719 299.214844 321.671875 296.894531 C 317.039062 294.367188 313.246094 291.417969 315.140625 284.890625 C 316.617188 279.625 317.460938 274.148438 317.667969 268.882812 C 318.511719 254.558594 316.195312 240.65625 309.242188 228.015625 C 314.71875 259.191406 314.511719 276.464844 307.558594 285.941406 C 305.242188 269.933594 302.921875 253.925781 300.605469 237.707031 C 299.554688 237.917969 298.5 238.128906 297.445312 238.128906 C 298.078125 241.289062 298.921875 244.445312 299.132812 247.605469 C 301.238281 263.40625 303.765625 279.203125 304.820312 295 C 305.453125 304.691406 306.082031 315.433594 297.867188 323.015625 C 295.972656 324.699219 292.601562 324.699219 290.074219 325.542969 C 289.441406 323.226562 288.179688 320.910156 288.179688 318.59375 C 288.179688 315.222656 289.441406 312.0625 290.074219 308.902344 C 293.234375 292.683594 294.074219 276.675781 287.335938 261.085938 C 286.914062 264.667969 287.546875 268.039062 287.335938 271.621094 C 286.492188 284.890625 285.648438 297.949219 284.386719 311.007812 C 284.175781 312.484375 281.859375 313.746094 280.59375 315.222656 C 279.332031 313.746094 277.433594 312.484375 277.222656 310.796875 C 276.589844 306.585938 276.589844 302.371094 276.382812 298.160156 C 275.75 287.417969 275.117188 276.675781 274.695312 265.933594 C 274.0625 265.933594 273.222656 265.933594 272.589844 266.144531 C 272.589844 284.046875 272.800781 301.742188 272.378906 319.644531 C 272.167969 325.753906 270.484375 332.074219 268.585938 338.179688 C 267.953125 340.078125 265.003906 341.339844 263.109375 343.027344 C 261.425781 340.921875 258.265625 338.601562 258.265625 336.496094 C 257.84375 330.597656 259.316406 324.488281 259.316406 318.382812 C 259.527344 302.582031 259.316406 286.785156 259.316406 270.988281 C 258.898438 270.988281 258.265625 270.988281 257.84375 270.988281 C 257 290.367188 255.949219 309.535156 255.105469 328.492188 C 242.042969 323.4375 246.046875 313.117188 245.625 304.058594 C 245.414062 299.214844 246.046875 294.367188 245.414062 289.523438 C 244.152344 279.203125 242.253906 268.882812 240.570312 258.558594 C 239.726562 270.144531 239.726562 281.308594 239.515625 292.261719 C 239.515625 295 238.671875 298.371094 237.199219 300.6875 C 234.882812 304.269531 231.300781 307.007812 228.5625 310.378906 C 226.457031 312.90625 224.769531 315.855469 223.085938 318.59375 C 222.453125 318.382812 221.820312 317.960938 221.398438 317.75 C 221.398438 301.109375 221.398438 284.46875 221.398438 267.828125 C 220.976562 267.828125 220.769531 267.828125 220.347656 267.828125 C 219.503906 286.152344 218.449219 304.269531 217.609375 322.59375 C 209.390625 323.648438 206.023438 319.855469 206.023438 311.851562 C 206.230469 301.953125 206.023438 292.261719 206.023438 282.363281 C 205.179688 282.363281 204.125 282.363281 203.285156 282.363281 C 203.285156 296.476562 203.285156 310.378906 203.285156 325.542969 C 209.390625 325.542969 216.132812 325.542969 224.980469 325.542969 C 221.820312 333.757812 219.925781 340.5 216.765625 346.816406 C 215.5 349.554688 212.128906 351.03125 209.601562 353.136719 C 207.707031 350.609375 204.96875 348.292969 204.125 345.554688 C 202.441406 340.710938 202.019531 335.234375 200.964844 329.757812 C 195.910156 339.023438 191.066406 347.660156 186.21875 356.507812 C 175.476562 336.496094 191.90625 318.59375 187.0625 300.6875 C 184.957031 309.746094 182.429688 319.222656 180.53125 328.914062 C 178.847656 337.339844 177.582031 345.976562 177.160156 354.613281 C 176.953125 359.035156 179.691406 363.246094 180.320312 367.671875 C 181.164062 374.621094 173.371094 382.417969 166.839844 381.574219 C 159.046875 380.519531 157.148438 375.464844 158.414062 368.304688 C 159.257812 363.457031 160.097656 358.824219 161.152344 353.980469 C 162.835938 345.132812 164.734375 336.496094 166.417969 327.648438 C 161.363281 340.289062 157.992188 353.347656 153.988281 365.984375 C 151.460938 374.199219 152.9375 380.941406 159.886719 385.996094 C 167.050781 391.261719 173.792969 389.578125 180.53125 384.523438 C 184.746094 381.152344 189.800781 378.625 195.277344 375.042969 C 196.121094 380.097656 196.332031 383.046875 196.964844 385.996094 C 201.175781 403.480469 210.023438 407.480469 223.925781 396.527344 C 236.777344 386.417969 247.730469 374.410156 259.105469 362.617188 C 269.21875 351.875 278.699219 340.5 280.171875 324.699219 C 281.226562 324.070312 282.488281 323.4375 283.542969 322.804688 C 286.914062 327.648438 290.074219 332.496094 293.867188 338.179688 C 307.558594 325.753906 308.820312 309.746094 312.613281 295 C 313.667969 294.789062 314.71875 294.578125 315.5625 294.367188 C 318.933594 303.003906 322.09375 311.429688 325.464844 319.855469 C 337.472656 300.476562 343.160156 244.027344 326.515625 230.125 Z M 283.332031 542.292969 C 283.542969 545.664062 283.753906 548.820312 284.175781 551.769531 C 285.859375 562.933594 282.699219 567.988281 271.535156 566.304688 C 261.425781 564.832031 251.523438 560.195312 242.675781 557.246094 C 246.046875 561.460938 249.628906 568.621094 255.527344 572.414062 C 262.476562 576.835938 271.535156 580.417969 279.539062 580.207031 C 291.757812 579.996094 298.5 568.832031 299.34375 551.140625 C 303.554688 553.246094 307.136719 554.929688 310.71875 556.828125 C 325.042969 564.199219 339.789062 566.726562 355.378906 561.460938 C 366.121094 557.878906 371.386719 550.71875 371.175781 541.660156 C 370.964844 532.390625 363.59375 523.335938 352.636719 519.964844 C 353.480469 531.550781 362.539062 545.242188 344.84375 551.558594 C 332.203125 556.195312 320.617188 552.191406 309.03125 548.191406 C 317.25 523.753906 313.878906 511.539062 299.554688 510.90625 C 300.605469 541.238281 301.027344 539.554688 283.332031 542.292969 Z M 225.613281 529.863281 C 230.667969 540.394531 244.78125 544.609375 257.84375 540.394531 C 267.535156 537.449219 274.90625 531.128906 275.960938 521.015625 C 276.800781 512.171875 275.539062 503.113281 275.117188 494.476562 C 283.332031 498.480469 291.96875 503.324219 301.027344 507.113281 C 318.722656 514.488281 339.578125 507.957031 346.320312 493.632812 C 353.269531 478.890625 345.054688 457.195312 328.203125 448.136719 C 329.253906 455.085938 329.886719 461.40625 331.363281 467.515625 C 336.628906 491.527344 323.988281 504.585938 300.394531 497.847656 C 290.074219 494.898438 280.171875 490.054688 270.0625 486.050781 C 266.902344 484.789062 263.53125 483.3125 259.105469 481.628906 C 259.105469 486.261719 259.105469 489.421875 259.105469 492.582031 C 259.316406 500.164062 260.160156 507.746094 259.316406 515.121094 C 258.054688 526.914062 249.417969 533.023438 237.621094 531.550781 C 233.828125 531.550781 230.457031 530.707031 225.613281 529.863281 Z M 401.511719 618.964844 C 403.195312 631.601562 404.671875 642.976562 406.144531 654.140625 C 406.988281 660.039062 405.09375 664.042969 398.351562 662.988281 C 390.976562 661.726562 383.605469 660.039062 376.441406 658.566406 C 374.125 658.144531 370.125 656.878906 369.492188 657.933594 C 367.382812 660.460938 365.699219 664.253906 365.910156 667.414062 C 366.121094 672.046875 368.4375 676.679688 369.070312 681.523438 C 371.386719 695.007812 364.433594 703.222656 350.742188 703.433594 C 345.898438 703.433594 341.050781 703.433594 335.785156 703.433594 C 344.421875 713.332031 359.800781 715.226562 371.808594 708.277344 C 383.183594 701.746094 385.289062 686.582031 377.285156 665.304688 C 384.660156 667.414062 391.398438 669.519531 398.351562 671.414062 C 413.941406 675.628906 423.628906 666.570312 419.839844 650.980469 C 418.574219 645.714844 416.890625 640.449219 415.625 636.238281 C 424.683594 636.871094 433.109375 638.976562 441.324219 637.710938 C 446.378906 637.082031 451.859375 632.445312 454.808594 627.8125 C 456.492188 625.496094 454.175781 619.175781 451.859375 615.804688 C 448.910156 611.382812 444.0625 608.222656 440.0625 604.429688 C 439.429688 605.0625 438.796875 605.484375 438.375 606.117188 C 439.007812 607.378906 439.429688 608.644531 440.273438 609.695312 C 446.589844 620.648438 442.378906 628.863281 430.160156 628.023438 C 423.417969 627.601562 416.679688 624.019531 409.9375 621.703125 C 406.988281 621.070312 404.25 620.019531 401.511719 618.964844 Z M 227.507812 107.320312 C 209.183594 106.476562 192.117188 110.058594 179.058594 123.539062 C 171.261719 131.332031 172.105469 141.234375 179.480469 149.871094 C 190.222656 162.507812 204.546875 169.878906 220.347656 173.671875 C 237.410156 177.671875 256.578125 167.140625 260.160156 152.816406 C 263.742188 138.496094 258.898438 125.855469 246.257812 117.429688 C 235.722656 110.480469 219.925781 112.164062 208.339844 121.433594 C 193.171875 133.648438 196.121094 152.398438 214.449219 159.136719 C 226.457031 163.5625 238.464844 162.71875 250.050781 155.554688 C 246.679688 160.191406 242.886719 164.402344 238.253906 166.089844 C 222.664062 171.988281 198.226562 163.351562 186.007812 148.605469 C 177.371094 138.285156 178.425781 129.859375 189.800781 122.066406 C 200.753906 114.058594 212.761719 107.320312 227.507812 107.320312 Z M 329.464844 592.425781 C 340 598.324219 349.6875 606.117188 360.855469 609.695312 C 381.078125 616.226562 398.351562 605.484375 399.402344 587.789062 C 399.613281 583.367188 398.140625 578.734375 397.507812 573.886719 C 400.667969 574.308594 403.617188 574.730469 406.566406 575.363281 C 406.777344 574.730469 406.777344 574.308594 406.988281 573.675781 C 400.246094 570.726562 393.507812 567.570312 385.289062 563.988281 C 385.921875 568.832031 386.554688 572.203125 386.976562 575.363281 C 388.660156 590.316406 384.867188 596.003906 369.914062 598.53125 C 365.066406 599.375 359.167969 598.953125 354.957031 596.847656 C 344.84375 591.582031 335.363281 585.261719 325.675781 579.152344 C 322.09375 576.835938 318.933594 573.886719 315.351562 571.148438 C 312.191406 584.628906 319.988281 600.007812 303.976562 607.378906 C 290.285156 613.699219 279.539062 603.589844 266.902344 597.902344 C 278.488281 614.332031 295.339844 621.070312 312.824219 616.015625 C 324.621094 612.015625 328.414062 601.691406 329.464844 592.425781 Z M 496.515625 587.367188 C 502.414062 603.378906 516.527344 620.019531 527.484375 626.546875 C 548.128906 638.554688 563.714844 632.234375 569.191406 609.277344 C 569.402344 608.644531 569.824219 608.222656 570.246094 607.378906 C 574.460938 608.222656 578.882812 609.066406 583.308594 610.117188 C 591.945312 612.015625 600.371094 609.695312 603.53125 601.902344 C 605.636719 596.425781 604.792969 588 602.054688 582.734375 C 596.578125 572.414062 588.996094 563.144531 582.042969 553.667969 C 580.988281 552.402344 579.304688 551.347656 578.039062 550.296875 C 584.570312 564.410156 591.3125 577.890625 596.789062 591.792969 C 597.84375 594.742188 595.734375 601.0625 592.996094 602.746094 C 583.730469 608.433594 567.085938 602.535156 562.242188 593.054688 C 556.976562 582.945312 551.289062 573.046875 545.808594 562.933594 C 545.179688 563.355469 544.546875 563.566406 543.914062 563.988281 C 546.019531 569.886719 548.550781 575.574219 550.234375 581.683594 C 552.550781 590.105469 555.5 598.53125 556.132812 606.957031 C 556.976562 619.386719 548.128906 626.546875 536.753906 621.914062 C 527.0625 617.910156 518.425781 610.75 510.210938 604.007812 C 504.941406 599.375 500.941406 592.84375 496.515625 587.367188 Z M 291.96875 625.496094 C 307.980469 639.1875 326.097656 649.929688 346.949219 655.195312 C 360.011719 658.566406 372.863281 649.507812 375.8125 636.660156 C 378.128906 626.757812 372.019531 618.753906 362.328125 618.753906 C 364.855469 635.816406 362.539062 642.765625 350.53125 645.503906 C 344.421875 646.980469 337.050781 646.347656 331.152344 644.03125 C 317.878906 638.765625 305.03125 631.8125 291.96875 625.496094 Z M 197.59375 460.773438 C 204.546875 473.832031 218.449219 482.050781 229.195312 480.363281 C 239.09375 478.890625 246.046875 472.570312 247.519531 464.144531 C 249.628906 451.296875 245.625 440.132812 237.410156 435.917969 C 237.410156 446.660156 241.621094 459.089844 230.457031 466.671875 C 219.082031 474.042969 209.390625 463.300781 197.59375 460.773438 Z M 241.621094 93.417969 C 241.832031 93.839844 241.832031 94.261719 242.042969 94.890625 C 266.480469 90.679688 290.707031 86.464844 316.828125 81.832031 C 269.21875 79.304688 222.875 72.773438 179.269531 95.523438 C 209.8125 88.785156 239.9375 76.988281 273.433594 83.9375 C 261.847656 87.097656 251.734375 90.257812 241.621094 93.417969 Z M 216.132812 489 C 216.132812 492.371094 216.132812 495.109375 216.132812 498.058594 C 216.554688 514.699219 208.128906 520.386719 192.960938 513.222656 C 186.007812 509.851562 179.691406 504.796875 173.160156 500.585938 C 179.480469 511.75 188.328125 520.386719 200.753906 524.175781 C 211.5 527.546875 219.503906 523.964844 223.925781 514.277344 C 228.140625 505.429688 225.402344 495.742188 216.132812 489 Z M 547.917969 317.539062 C 549.179688 328.492188 561.609375 338.8125 573.617188 339.65625 C 586.46875 340.710938 596.789062 333.96875 599.949219 322.171875 C 602.6875 312.273438 599.738281 304.480469 590.890625 300.265625 C 590.890625 305.953125 591.101562 311.21875 590.890625 316.695312 C 590.46875 328.703125 584.148438 334.179688 572.351562 333.757812 C 561.1875 333.125 554.238281 326.175781 547.917969 317.539062 Z M 220.558594 407.691406 C 221.609375 416.328125 226.457031 421.382812 235.722656 423.914062 C 244.570312 426.441406 250.257812 421.175781 254.894531 415.277344 C 259.949219 408.746094 259.316406 397.792969 254.261719 390.839844 C 245.835938 418.855469 242.464844 416.75 220.558594 407.691406 Z M 390.976562 113.007812 C 363.171875 96.789062 283.332031 93.839844 268.585938 109.003906 C 310.085938 97 349.898438 106.054688 390.976562 113.007812 Z M 381.078125 162.296875 C 388.660156 163.5625 394.980469 163.140625 399.824219 165.667969 C 418.785156 175.566406 437.53125 186.308594 456.28125 196.632812 C 459.652344 198.527344 463.234375 200.421875 466.605469 202.320312 C 467.023438 201.476562 467.65625 200.632812 468.078125 199.789062 C 454.386719 191.15625 441.113281 181.886719 427.210938 173.882812 C 414.148438 166.300781 400.246094 160.191406 385.078125 152.609375 C 383.816406 155.347656 382.339844 159.347656 381.078125 162.296875 Z M 604.164062 316.484375 C 607.113281 319.011719 610.269531 322.382812 614.0625 324.910156 C 625.859375 333.335938 642.082031 329.964844 648.398438 317.75 C 654.929688 305.109375 649.875 281.308594 637.234375 270.355469 C 639.132812 276.253906 640.816406 280.464844 641.660156 284.679688 C 643.34375 292.261719 645.449219 299.84375 645.449219 307.640625 C 645.449219 317.328125 639.972656 323.648438 630.496094 323.226562 C 621.855469 323.015625 613.21875 319.011719 604.164062 316.484375 Z M 401.300781 151.976562 C 381.5 141.445312 325.042969 126.066406 303.976562 128.171875 C 334.734375 135.757812 368.015625 143.761719 401.300781 151.976562 Z M 926.046875 961.675781 C 908.769531 952.621094 897.816406 939.769531 887.496094 926.289062 C 859.898438 890.691406 833.355469 854.039062 812.289062 814.019531 C 810.816406 811.070312 808.921875 808.332031 806.390625 806.015625 C 812.710938 824.550781 826.195312 840.347656 829.773438 860.148438 C 828.722656 860.992188 827.457031 861.832031 826.40625 862.886719 C 793.542969 832.554688 760.46875 802.011719 726.765625 770.835938 C 730.554688 768.519531 734.347656 765.78125 738.140625 764.097656 C 754.359375 756.511719 767 745.769531 775.003906 729.339844 C 776.269531 726.8125 780.480469 725.128906 783.640625 724.496094 C 795.859375 722.179688 809.339844 723.019531 819.875 717.753906 C 843.46875 705.75 868.113281 714.597656 891.917969 711.648438 C 893.816406 711.4375 896.972656 713.542969 898.027344 715.4375 C 934.050781 770.625 970.070312 826.023438 1005.671875 881.632812 C 1012.414062 892.164062 1017.679688 903.960938 1022.738281 915.546875 C 1024 918.285156 1023.15625 924.183594 1021.050781 925.867188 C 1018.734375 927.554688 1012.835938 927.34375 1010.519531 925.234375 C 1001.671875 917.652344 992.402344 909.859375 985.449219 900.800781 C 971.96875 882.898438 959.75 864.148438 947.109375 845.613281 C 945.425781 843.296875 943.738281 840.769531 940.160156 839.714844 C 950.480469 856.566406 961.226562 872.996094 971.125 890.269531 C 981.660156 908.59375 991.347656 927.554688 1001.25 946.089844 C 1001.882812 947.351562 1002.933594 949.039062 1002.933594 950.300781 C 1002.300781 956.832031 1003.355469 965.890625 999.773438 969.261719 C 995.984375 972.839844 986.292969 973.050781 980.816406 970.734375 C 972.8125 967.363281 966.28125 960.414062 959.539062 955.148438 C 960.382812 957.042969 962.277344 959.992188 962.699219 963.152344 C 963.121094 966.3125 961.855469 969.679688 961.226562 973.050781 C 958.277344 972.417969 954.0625 973.050781 952.378906 971.15625 C 942.898438 961.046875 934.050781 950.300781 925.203125 939.558594 C 920.988281 934.503906 917.199219 929.027344 912.773438 923.972656 C 914.667969 936.398438 930.46875 944.402344 926.046875 961.675781 Z M 934.472656 863.941406 C 935.3125 863.308594 936.15625 862.886719 936.789062 862.253906 C 914.878906 831.078125 892.761719 799.695312 870.851562 768.519531 C 870.222656 768.941406 869.378906 769.574219 868.746094 769.996094 C 890.65625 801.378906 912.5625 832.554688 934.472656 863.941406 Z M 823.667969 761.359375 C 822.824219 761.988281 821.980469 762.621094 821.136719 763.253906 C 842.203125 792.742188 863.058594 822.234375 884.125 851.722656 C 884.757812 851.300781 885.386719 850.878906 886.019531 850.457031 C 865.375 820.757812 844.519531 791.058594 823.667969 761.359375 Z M 622.699219 790.847656 C 604.582031 790.847656 586.46875 791.058594 568.351562 790.847656 C 556.34375 790.636719 548.757812 796.113281 544.546875 806.855469 C 541.808594 814.230469 539.28125 821.601562 536.753906 829.183594 C 526.851562 859.515625 514.84375 868.363281 483.667969 868.996094 C 467.867188 869.207031 452.910156 872.574219 440.0625 882.054688 C 432.6875 887.53125 424.894531 889.425781 416.046875 888.164062 C 392.453125 885.214844 371.175781 893.007812 350.742188 903.328125 C 349.269531 903.960938 348.847656 906.277344 349.058594 905.855469 C 361.277344 909.4375 374.125 911.332031 384.660156 917.441406 C 391.398438 921.234375 397.085938 922.707031 403.828125 921.234375 C 410.359375 919.757812 417.097656 918.496094 422.789062 915.335938 C 443.429688 904.59375 465.128906 902.90625 487.878906 903.117188 C 512.949219 903.328125 538.015625 901.433594 563.085938 899.539062 C 572.773438 898.695312 582.886719 896.589844 588.152344 886.476562 C 598.054688 898.0625 622.910156 905.226562 637.65625 900.167969 C 640.816406 899.117188 644.1875 897.640625 646.082031 895.324219 C 654.296875 885.425781 664.199219 886.058594 674.941406 888.796875 C 692.636719 893.21875 707.59375 901.855469 719.601562 915.757812 C 708.648438 890.269531 692.636719 870.679688 663.777344 865.625 C 649.875 863.097656 635.550781 862.464844 621.4375 860.359375 C 613.011719 859.09375 603.953125 857.832031 596.367188 854.25 C 586.257812 849.40625 581.410156 848.773438 573.828125 856.777344 C 570.035156 860.78125 567.296875 865.414062 563.925781 869.835938 C 562.242188 871.945312 560.765625 874.050781 559.082031 875.945312 C 560.976562 860.78125 570.246094 850.667969 579.726562 840.558594 C 594.472656 824.972656 609.007812 809.382812 623.753906 793.796875 C 623.753906 792.320312 623.332031 791.480469 622.699219 790.847656 Z M 518.636719 807.910156 C 518.847656 804.75 516.527344 799.273438 513.789062 798.007812 C 500.308594 792.113281 486.40625 787.476562 472.082031 782 C 470.816406 789.792969 470.183594 796.113281 468.710938 802.222656 C 462.390625 827.5 433.953125 850.246094 403.828125 854.25 C 398.773438 854.882812 393.714844 856.355469 388.660156 857.199219 C 374.96875 859.09375 361.484375 861.832031 347.582031 862.464844 C 329.464844 863.097656 311.140625 862.464844 293.023438 861.621094 C 269.21875 860.570312 246.679688 866.886719 224.558594 873.207031 C 207.707031 878.050781 194.015625 888.796875 183.902344 904.804688 C 196.332031 898.484375 207.496094 892.375 219.082031 887.109375 C 235.933594 879.316406 252.367188 877 266.058594 895.535156 C 269.21875 884.582031 275.117188 879.105469 286.492188 882.054688 C 283.753906 882.476562 281.226562 882.054688 279.75 883.320312 C 276.589844 885.636719 272.378906 888.375 271.535156 891.746094 C 270.902344 894.0625 274.484375 898.484375 277.433594 900.589844 C 284.175781 905.4375 290.917969 903.75 295.972656 897.851562 C 301.660156 891.324219 308.402344 890.480469 316.195312 890.269531 C 330.097656 890.058594 344 889.847656 357.695312 888.375 C 373.492188 886.6875 389.292969 882.054688 405.09375 881.632812 C 418.785156 881.210938 431.425781 880.582031 443.011719 872.574219 C 447.644531 869.417969 453.542969 867.730469 459.230469 867.097656 C 473.976562 865.414062 488.722656 864.359375 503.46875 863.308594 C 509.367188 862.886719 511.472656 860.570312 510 854.25 C 506.207031 854.25 502.835938 854.25 497.359375 854.25 C 512.105469 840.980469 517.160156 824.972656 518.636719 807.910156 Z M 57.085938 148.183594 C 19.167969 173.039062 0 208.007812 2.105469 253.714844 C 2.949219 274.148438 12.851562 290.789062 29.28125 307.007812 C 24.859375 286.996094 26.964844 270.144531 37.707031 256.242188 C 45.921875 245.710938 56.246094 236.441406 67.199219 228.648438 C 86.367188 214.957031 106.382812 202.53125 121.546875 183.992188 C 126.816406 177.464844 127.445312 171.355469 125.972656 163.980469 C 124.496094 156.1875 118.179688 155.554688 112.492188 154.292969 C 99.429688 151.554688 87.421875 147.339844 81.101562 134.28125 C 72.675781 138.914062 64.671875 143.128906 57.085938 148.183594 Z M 821.347656 684.261719 C 842.203125 689.320312 863.269531 693.320312 884.335938 697.535156 C 891.917969 699.007812 895.289062 695.007812 896.132812 687.632812 C 898.238281 670.992188 893.394531 661.9375 878.015625 655.195312 C 873.589844 653.300781 868.957031 651.613281 864.535156 649.929688 C 836.09375 638.976562 807.445312 628.234375 779.007812 617.070312 C 767.421875 612.433594 756.046875 606.746094 744.039062 601.269531 C 744.039062 618.542969 741.929688 633.289062 723.394531 639.609375 C 754.78125 658.566406 786.167969 676.046875 821.347656 684.261719 Z M 706.332031 644.664062 C 708.648438 665.304688 692.847656 675.628906 662.933594 666.359375 C 670.097656 672.679688 677.050781 679.417969 685.265625 684.261719 C 713.492188 701.324219 744.878906 708.277344 777.320312 712.699219 C 796.492188 715.226562 812.078125 707.855469 827.246094 698.585938 C 786.378906 680.472656 746.355469 662.566406 706.332031 644.664062 Z M 705.488281 745.558594 C 705.277344 746.402344 705.066406 747.246094 704.855469 748.085938 C 698.535156 748.085938 692.425781 748.507812 686.109375 747.875 C 675.152344 746.824219 671.992188 748.929688 669.886719 760.09375 C 703.59375 771.679688 754.359375 751.457031 758.363281 723.863281 C 743.195312 718.808594 728.027344 713.542969 711.175781 707.855469 C 711.597656 727.234375 692.214844 728.078125 684 739.660156 C 692.007812 741.980469 698.746094 743.664062 705.488281 745.558594 Z M 290.707031 958.726562 C 309.453125 946.511719 329.886719 940.402344 352.636719 943.351562 C 357.0625 943.984375 361.695312 945.035156 366.121094 944.613281 C 374.757812 943.984375 380.867188 937.453125 381.710938 928.605469 C 382.761719 919.339844 375.390625 918.285156 369.28125 915.757812 C 334.523438 901.222656 284.597656 940.613281 278.910156 971.367188 C 282.699219 967.363281 285.859375 961.886719 290.707031 958.726562 Z M 64.25 244.234375 C 69.09375 244.445312 73.941406 244.65625 78.785156 245.289062 C 96.902344 246.972656 113.753906 243.394531 129.132812 233.703125 C 138.613281 227.804688 145.140625 219.589844 145.140625 208.007812 C 145.140625 195.789062 134.820312 189.890625 124.707031 196.421875 C 107.011719 207.375 89.527344 218.960938 72.464844 230.753906 C 68.464844 233.492188 65.515625 238.128906 62.144531 241.917969 C 62.777344 242.550781 63.617188 243.394531 64.25 244.234375 Z M 201.597656 919.128906 C 211.289062 919.128906 220.976562 919.339844 230.667969 919.128906 C 235.515625 919.128906 240.359375 918.707031 244.992188 917.652344 C 252.789062 915.96875 258.265625 908.382812 257.632812 901.222656 C 257 893.007812 251.523438 887.742188 242.675781 887.320312 C 238.253906 887.109375 233.40625 886.6875 229.195312 888.164062 C 205.8125 896.378906 185.378906 909.226562 170 929.449219 C 178.425781 919.128906 190.011719 919.128906 201.597656 919.128906 Z M 405.511719 834.238281 C 403.617188 836.765625 403.195312 841.824219 404.460938 844.5625 C 405.511719 846.667969 410.359375 848.5625 413.308594 848.351562 C 440.273438 846.457031 461.546875 819.074219 457.335938 791.480469 C 436.269531 801.378906 418.996094 815.914062 405.511719 834.238281 Z M 386.765625 839.925781 C 364.015625 840.558594 341.261719 841.402344 318.933594 844.140625 C 302.714844 846.246094 287.125 851.722656 270.0625 855.933594 C 286.914062 855.933594 302.292969 855.933594 317.667969 855.933594 C 346.109375 855.933594 374.96875 863.097656 404.460938 846.667969 C 398.140625 844.140625 392.242188 839.714844 386.765625 839.925781 Z M 381.289062 266.984375 C 382.128906 272.039062 384.238281 277.304688 383.394531 282.152344 C 382.339844 287.417969 379.8125 293.738281 375.8125 296.476562 C 370.542969 300.054688 363.59375 298.582031 358.328125 293.738281 C 356.640625 292.261719 354.535156 291.417969 351.585938 289.523438 C 353.480469 309.746094 347.582031 326.175781 334.945312 340.078125 C 341.472656 346.816406 345.6875 345.34375 350.109375 338.8125 C 357.90625 327.4375 365.066406 315.855469 364.226562 300.898438 C 366.964844 303.847656 368.015625 307.640625 370.542969 309.113281 C 377.285156 313.117188 384.867188 319.433594 391.609375 318.59375 C 399.824219 317.75 400.246094 307.640625 399.824219 299.84375 C 399.613281 294.367188 398.773438 288.890625 398.140625 283.203125 C 401.933594 286.574219 404.460938 290.578125 405.511719 294.789062 C 407.199219 300.898438 407.832031 307.21875 408.671875 313.535156 C 409.726562 320.488281 414.78125 322.59375 419.839844 319.644531 C 423.839844 317.328125 428.265625 312.0625 428.683594 307.847656 C 429.527344 297.949219 428.054688 287.839844 427.421875 275.410156 C 415.625 285.3125 405.933594 282.152344 396.664062 276.042969 C 391.820312 272.882812 387.1875 269.511719 382.550781 266.144531 C 381.917969 266.351562 381.5 266.773438 381.289062 266.984375 Z M 401.722656 272.460938 C 408.25 278.148438 415.203125 275.621094 420.890625 272.25 C 422.789062 270.988281 421.734375 264.457031 421.523438 260.246094 C 421.3125 257.085938 420.679688 253.503906 419.417969 250.554688 C 417.308594 245.5 414.570312 240.65625 412.042969 235.808594 C 411.199219 236.230469 410.359375 236.441406 409.515625 236.863281 C 409.726562 249.082031 414.359375 263.195312 396.875 269.722656 C 399.195312 270.988281 400.457031 271.621094 401.722656 272.460938 Z M 314.929688 368.722656 C 320.410156 370.199219 326.9375 374.410156 331.363281 372.9375 C 340.210938 369.988281 340.210938 349.136719 332.414062 343.660156 C 327.570312 348.925781 322.515625 354.191406 318.089844 359.878906 C 316.195312 362.40625 315.984375 365.984375 315.140625 369.144531 C 315.140625 368.933594 314.929688 368.722656 314.929688 368.722656 Z M 236.566406 346.605469 C 232.984375 352.925781 234.671875 356.929688 240.148438 360.929688 C 246.257812 365.144531 249.417969 360.929688 253.207031 357.5625 C 255.738281 355.453125 258.265625 353.347656 260.792969 351.03125 C 255.316406 344.5 249.839844 338.179688 243.308594 330.386719 C 240.570312 337.339844 239.09375 342.183594 236.566406 346.605469 Z M 208.339844 392.527344 C 213.605469 396.109375 218.449219 393.371094 220.976562 389.15625 C 216.34375 379.046875 212.339844 369.988281 207.285156 359.246094 C 203.285156 371.882812 194.4375 383.257812 208.339844 392.527344 Z M 218.660156 369.777344 C 220.136719 374.199219 225.402344 377.570312 229.617188 380.519531 C 230.457031 380.941406 235.515625 376.941406 236.988281 373.992188 C 240.570312 366.195312 235.304688 360.929688 229.617188 355.664062 C 223.507812 359.035156 216.132812 361.984375 218.660156 369.777344 Z M 218.660156 354.191406 C 231.089844 351.242188 243.941406 323.015625 237.410156 304.691406 C 230.457031 322.382812 224.347656 339.023438 218.660156 354.191406 Z M 196.121094 350.1875 C 193.171875 356.085938 190.011719 362.195312 187.0625 368.09375 C 187.90625 369.144531 188.746094 369.988281 189.589844 371.042969 C 192.960938 368.722656 198.015625 367.25 199.492188 364.089844 C 201.175781 360.300781 199.914062 355.242188 199.914062 350.609375 C 198.648438 350.398438 197.386719 350.1875 196.121094 350.1875 Z M 210.445312 135.96875 C 210.023438 144.394531 217.820312 153.660156 227.085938 152.609375 C 233.617188 151.976562 240.570312 147.761719 245.835938 143.550781 C 255.316406 135.757812 253 126.910156 241.410156 122.695312 C 238.042969 121.433594 234.460938 121.222656 233.195312 121.011719 C 219.503906 120.800781 210.867188 127.121094 210.445312 135.96875 Z M 210.445312 135.96875 " fill-opacity="1" fill-rule="nonzero"></path></g></svg><style>@media (prefers-color-scheme: light) { :root { filter: none; } }
@media (prefers-color-scheme: dark) { :root { filter: contrast(0.8333333333333334) brightness(1.7); } }
</style></svg>